<svg width="102" height="92" viewBox="0 0 102 92" fill="none" xmlns="http://www.w3.org/2000/svg">
<path d="M1.0405 68.3187C0.76436 68.3187 0.540502 68.5425 0.540502 68.8187C0.540502 69.0948 0.76436 69.3187 1.0405 69.3187V68.3187ZM18.416 68.8187H18.916C18.916 68.5425 18.6921 68.3187 18.416 68.3187V68.8187ZM18.416 79.9093H17.916C17.916 80.1855 18.1398 80.4093 18.416 80.4093V79.9093ZM27.1239 80.4093C27.4001 80.4093 27.6239 80.1855 27.6239 79.9093C27.6239 79.6332 27.4001 79.4093 27.1239 79.4093V80.4093ZM1.0405 35.0054C0.76436 35.0054 0.540502 35.2292 0.540502 35.5054C0.540502 35.7815 0.76436 36.0054 1.0405 36.0054V35.0054ZM16.2288 35.5054V36.0054C16.505 36.0054 16.7288 35.7815 16.7288 35.5054H16.2288ZM16.2288 26.608V26.108C15.9527 26.108 15.7288 26.3319 15.7288 26.608H16.2288ZM24.9368 27.108C25.213 27.108 25.4368 26.8842 25.4368 26.608C25.4368 26.3319 25.213 26.108 24.9368 26.108V27.108ZM1.0405 54.9934C0.76436 54.9934 0.540502 55.2172 0.540502 55.4934C0.540502 55.7695 0.76436 55.9934 1.0405 55.9934V54.9934ZM22.7497 42.168V41.668C22.4736 41.668 22.2497 41.8919 22.2497 42.168H22.7497ZM31.4577 42.668C31.7338 42.668 31.9577 42.4442 31.9577 42.168C31.9577 41.8919 31.7338 41.668 31.4577 41.668V42.668ZM44.4589 55.9934C44.735 55.9934 44.9589 55.7695 44.9589 55.4934C44.9589 55.2172 44.735 54.9934 44.4589 54.9934V55.9934ZM92.7515 64.3493C92.7515 64.0732 92.5277 63.8493 92.2515 63.8493C91.9754 63.8493 91.7515 64.0732 91.7515 64.3493H92.7515ZM87.7963 86.4479L88.1536 86.7976L88.1561 86.795L87.7963 86.4479ZM3.55164 88.3929L3.19428 88.7426L3.19865 88.747L3.55164 88.3929ZM3.55164 18.1245L3.19428 17.7747L3.19002 17.7792L3.55164 18.1245ZM87.8368 20.0695L88.1941 19.7198L88.1916 19.7172L87.8368 20.0695ZM78.2381 15.719C78.3037 15.9872 78.5744 16.1514 78.8426 16.0858C79.1108 16.0202 79.2751 15.7495 79.2094 15.4813L78.2381 15.719ZM75.9696 4.34396L75.4803 4.44659C75.4814 4.45201 75.4826 4.45741 75.4839 4.46279L75.9696 4.34396ZM75.2406 2.7714L75.6479 2.48146C75.6425 2.47377 75.6368 2.46624 75.6309 2.45887L75.2406 2.7714ZM73.9445 1.61268L73.6885 2.04218C73.6935 2.04512 73.6985 2.04798 73.7035 2.05075L73.9445 1.61268ZM70.6233 1.15746L70.5164 0.669035C70.5078 0.67092 70.4992 0.673032 70.4907 0.675369L70.6233 1.15746ZM18.2834 15.0353C18.0171 15.1085 17.8606 15.3837 17.9339 15.65C18.0071 15.9162 18.2823 16.0727 18.5486 15.9995L18.2834 15.0353ZM92.2515 33.7707C92.5277 33.7707 92.7515 33.5468 92.7515 33.2707C92.7515 32.9945 92.5277 32.7707 92.2515 32.7707V33.7707ZM72.6889 33.2707H72.1889C72.1889 33.5468 72.4128 33.7707 72.6889 33.7707V33.2707ZM72.6889 24.3733H73.1889C73.1889 24.0972 72.9651 23.8733 72.6889 23.8733V24.3733ZM66.1681 23.8733C65.8919 23.8733 65.6681 24.0972 65.6681 24.3733C65.6681 24.6495 65.8919 24.8733 66.1681 24.8733V23.8733ZM81.8969 64.3493C81.8969 64.0732 81.6731 63.8493 81.3969 63.8493C81.1208 63.8493 80.8969 64.0732 80.8969 64.3493H81.8969ZM81.3969 75.44V75.94C81.6731 75.94 81.8969 75.7161 81.8969 75.44H81.3969ZM64.0215 74.94C63.7453 74.94 63.5215 75.1638 63.5215 75.44C63.5215 75.7161 63.7453 75.94 64.0215 75.94V74.94ZM1.0405 69.3187H18.416V68.3187H1.0405V69.3187ZM17.916 68.8187V79.9093H18.916V68.8187H17.916ZM18.416 80.4093H27.1239V79.4093H18.416V80.4093ZM1.0405 36.0054H16.2288V35.0054H1.0405V36.0054ZM16.7288 35.5054V26.608H15.7288V35.5054H16.7288ZM16.2288 27.108H24.9368V26.108H16.2288V27.108ZM1.0405 55.9934H22.7497V54.9934H1.0405V55.9934ZM23.2497 55.4934V42.168H22.2497V55.4934H23.2497ZM22.7497 42.668H31.4577V41.668H22.7497V42.668ZM22.7497 55.9934H44.4589V54.9934H22.7497V55.9934ZM91.7515 64.3493V75.44H92.7515V64.3493H91.7515ZM91.7515 75.44C91.7515 79.447 90.1829 83.2544 87.4365 86.1007L88.1561 86.795C91.0799 83.7649 92.7515 79.7096 92.7515 75.44H91.7515ZM87.4389 86.0981C84.6966 88.9001 80.9367 90.5 77.0227 90.5V91.5C81.2091 91.5 85.2256 89.7892 88.1536 86.7976L87.4389 86.0981ZM77.0227 90.5H9.70798V91.5H77.0227V90.5ZM9.70798 90.5C7.53971 90.5 5.47734 89.6065 3.90463 88.0387L3.19865 88.747C4.94712 90.4899 7.25899 91.5 9.70798 91.5V90.5ZM3.90898 88.0431C2.3809 86.4818 1.5 84.3315 1.5 82.1026H0.5C0.5 84.5914 1.4822 86.9933 3.1943 88.7426L3.90898 88.0431ZM1.5 82.1026V24.4147H0.5V82.1026H1.5ZM1.5 24.4147C1.5 22.1893 2.37862 20.077 3.91326 18.4698L3.19002 17.7792C1.48448 19.5654 0.5 21.9225 0.5 24.4147H1.5ZM3.90898 18.4742C5.43672 16.9133 7.53625 16.0174 9.70798 16.0174V15.0174C7.26246 15.0174 4.90674 16.0251 3.1943 17.7748L3.90898 18.4742ZM9.70798 16.0174H77.0632V15.0174H9.70798V16.0174ZM77.0632 16.0174C80.9752 16.0174 84.6966 17.6159 87.4819 20.4218L88.1916 19.7172C85.2257 16.7295 81.2516 15.0174 77.0632 15.0174V16.0174ZM87.4794 20.4192C90.2221 23.2216 91.792 27.0684 91.792 31.0774H92.792C92.792 26.8098 91.1217 22.7111 88.1941 19.7198L87.4794 20.4192ZM91.792 31.0774V42.168H92.792V31.0774H91.792ZM79.2094 15.4813L76.4553 4.22512L75.4839 4.46279L78.2381 15.719L79.2094 15.4813ZM76.459 4.24133C76.3189 3.57336 75.9971 2.97197 75.6479 2.48146L74.8332 3.06135C75.1321 3.48126 75.3773 3.95583 75.4803 4.44659L76.459 4.24133ZM75.6309 2.45887C75.2476 1.9802 74.7942 1.50947 74.1855 1.1746L73.7035 2.05075C74.1479 2.29525 74.5046 2.65217 74.8503 3.08393L75.6309 2.45887ZM74.2005 1.18318C73.6604 0.861265 73.0312 0.631184 72.3966 0.538559L72.2522 1.52807C72.7517 1.60098 73.2566 1.78473 73.6885 2.04218L74.2005 1.18318ZM72.3966 0.538559C71.7384 0.442477 71.0998 0.541298 70.5164 0.669035L70.7303 1.64589C71.2809 1.52533 71.7764 1.45862 72.2522 1.52807L72.3966 0.538559ZM70.4907 0.675369L18.2834 15.0353L18.5486 15.9995L70.7559 1.63956L70.4907 0.675369ZM92.292 41.668H79.2503V42.668H92.292V41.668ZM79.2503 41.668C74.1443 41.668 70.0423 45.8749 70.0423 51.0654H71.0423C71.0423 46.4067 74.7168 42.668 79.2503 42.668V41.668ZM70.0423 51.0654V55.4934H71.0423V51.0654H70.0423ZM70.0423 55.4934C70.0423 60.641 74.1428 64.8907 79.2503 64.8907V63.8907C74.7183 63.8907 71.0423 60.1121 71.0423 55.4934H70.0423ZM79.2503 64.8907H92.292V63.8907H79.2503V64.8907ZM92.292 64.8907C97.398 64.8907 101.5 60.6839 101.5 55.4934H100.5C100.5 60.152 96.8256 63.8907 92.292 63.8907V64.8907ZM101.5 55.4934V51.0654H100.5V55.4934H101.5ZM101.5 51.0654C101.5 45.8749 97.398 41.668 92.292 41.668V42.668C96.8256 42.668 100.5 46.4067 100.5 51.0654H101.5ZM80.3034 53.876C79.9821 53.876 79.7098 53.6135 79.7098 53.2587H78.7098C78.7098 54.1454 79.4096 54.876 80.3034 54.876V53.876ZM79.7098 53.2587C79.7098 52.9039 79.9821 52.6413 80.3034 52.6413V51.6413C79.4096 51.6413 78.7098 52.372 78.7098 53.2587H79.7098ZM80.3034 54.876C81.1971 54.876 81.8969 54.1454 81.8969 53.2587H80.8969C80.8969 53.6135 80.6247 53.876 80.3034 53.876V54.876ZM81.8969 53.2587C81.8969 52.372 81.1971 51.6413 80.3034 51.6413V52.6413C80.6247 52.6413 80.8969 52.9039 80.8969 53.2587H81.8969ZM41.2187 42.7854C40.8974 42.7854 40.6252 42.5228 40.6252 42.168H39.6252C39.6252 43.0547 40.325 43.7854 41.2187 43.7854V42.7854ZM40.6252 42.168C40.6252 41.8132 40.8974 41.5507 41.2187 41.5507V40.5507C40.325 40.5507 39.6252 41.2813 39.6252 42.168H40.6252ZM41.2187 43.7854C42.1125 43.7854 42.8123 43.0547 42.8123 42.168H41.8123C41.8123 42.5228 41.54 42.7854 41.2187 42.7854V43.7854ZM42.8123 42.168C42.8123 41.2813 42.1125 40.5507 41.2187 40.5507V41.5507C41.54 41.5507 41.8123 41.8132 41.8123 42.168H42.8123ZM56.407 25.0321C56.0857 25.0321 55.8135 24.7695 55.8135 24.4147H54.8135C54.8135 25.3014 55.5133 26.0321 56.407 26.0321V25.0321ZM55.8135 24.4147C55.8135 24.0599 56.0857 23.7974 56.407 23.7974V22.7974C55.5133 22.7974 54.8135 23.528 54.8135 24.4147H55.8135ZM56.407 26.0321C57.3008 26.0321 58.0006 25.3014 58.0006 24.4147H57.0006C57.0006 24.7695 56.7284 25.0321 56.407 25.0321V26.0321ZM58.0006 24.4147C58.0006 23.528 57.3008 22.7974 56.407 22.7974V23.7974C56.7284 23.7974 57.0006 24.0599 57.0006 24.4147H58.0006ZM36.885 80.5267C36.5637 80.5267 36.2914 80.2641 36.2914 79.9093H35.2914C35.2914 80.796 35.9912 81.5267 36.885 81.5267V80.5267ZM36.2914 79.9093C36.2914 79.5545 36.5637 79.292 36.885 79.292V78.292C35.9912 78.292 35.2914 79.0226 35.2914 79.9093H36.2914ZM36.8445 81.5267C37.7382 81.5267 38.438 80.796 38.438 79.9093H37.438C37.438 80.2641 37.1658 80.5267 36.8445 80.5267V81.5267ZM38.438 79.9093C38.438 79.0226 37.7382 78.292 36.8445 78.292V79.292C37.1658 79.292 37.438 79.5545 37.438 79.9093H38.438ZM92.2515 32.7707H72.6889V33.7707H92.2515V32.7707ZM73.1889 33.2707V24.3733H72.1889V33.2707H73.1889ZM72.6889 23.8733H66.1681V24.8733H72.6889V23.8733ZM80.8969 64.3493V75.44H81.8969V64.3493H80.8969ZM81.3969 74.94H64.0215V75.94H81.3969V74.94Z" fill="white"/>
</svg>
