<svg width="92" height="92" viewBox="0 0 92 92" fill="none" xmlns="http://www.w3.org/2000/svg">
<path d="M24.4545 12.2063C24.1784 12.2063 23.9545 12.4302 23.9545 12.7063C23.9545 12.9824 24.1784 13.2063 24.4545 13.2063V12.2063ZM34.2308 13.2063C34.5069 13.2063 34.7308 12.9824 34.7308 12.7063C34.7308 12.4302 34.5069 12.2063 34.2308 12.2063V13.2063ZM24.4545 45.479C24.1784 45.479 23.9545 45.7029 23.9545 45.979C23.9545 46.2552 24.1784 46.479 24.4545 46.479V45.479ZM34.2308 46.479C34.5069 46.479 34.7308 46.2552 34.7308 45.979C34.7308 45.7029 34.5069 45.479 34.2308 45.479V46.479ZM24.4545 78.7937C24.1784 78.7937 23.9545 79.0176 23.9545 79.2937C23.9545 79.5699 24.1784 79.7937 24.4545 79.7937V78.7937ZM34.2308 79.7937C34.5069 79.7937 34.7308 79.5699 34.7308 79.2937C34.7308 79.0176 34.5069 78.7937 34.2308 78.7937V79.7937ZM57.7273 12.2063C57.4511 12.2063 57.2273 12.4302 57.2273 12.7063C57.2273 12.9824 57.4511 13.2063 57.7273 13.2063V12.2063ZM67.5035 13.2063C67.7796 13.2063 68.0035 12.9824 68.0035 12.7063C68.0035 12.4302 67.7796 12.2063 67.5035 12.2063V13.2063ZM57.7273 45.479C57.4511 45.479 57.2273 45.7029 57.2273 45.979C57.2273 46.2552 57.4511 46.479 57.7273 46.479V45.479ZM67.5035 46.479C67.7796 46.479 68.0035 46.2552 68.0035 45.979C68.0035 45.7029 67.7796 45.479 67.5035 45.479V46.479ZM57.7273 78.7937C57.4511 78.7937 57.2273 79.0176 57.2273 79.2937C57.2273 79.5699 57.4511 79.7937 57.7273 79.7937V78.7937ZM67.5035 79.7937C67.7796 79.7937 68.0035 79.5699 68.0035 79.2937C68.0035 79.0176 67.7796 78.7937 67.5035 78.7937V79.7937ZM79.7937 24.4545C79.7937 24.1784 79.5699 23.9545 79.2937 23.9545C79.0176 23.9545 78.7937 24.1784 78.7937 24.4545H79.7937ZM78.7937 34.2308C78.7937 34.5069 79.0176 34.7308 79.2937 34.7308C79.5699 34.7308 79.7937 34.5069 79.7937 34.2308H78.7937ZM46.521 24.4545C46.521 24.1784 46.2971 23.9545 46.021 23.9545C45.7448 23.9545 45.521 24.1784 45.521 24.4545H46.521ZM45.521 34.2308C45.521 34.5069 45.7448 34.7308 46.021 34.7308C46.2971 34.7308 46.521 34.5069 46.521 34.2308H45.521ZM13.2063 24.4545C13.2063 24.1784 12.9824 23.9545 12.7063 23.9545C12.4302 23.9545 12.2063 24.1784 12.2063 24.4545H13.2063ZM12.2063 34.2308C12.2063 34.5069 12.4302 34.7308 12.7063 34.7308C12.9824 34.7308 13.2063 34.5069 13.2063 34.2308H12.2063ZM79.7937 57.7273C79.7937 57.4511 79.5699 57.2273 79.2937 57.2273C79.0176 57.2273 78.7937 57.4511 78.7937 57.7273H79.7937ZM78.7937 67.5035C78.7937 67.7796 79.0176 68.0035 79.2937 68.0035C79.5699 68.0035 79.7937 67.7796 79.7937 67.5035H78.7937ZM46.521 57.7273C46.521 57.4511 46.2971 57.2273 46.021 57.2273C45.7448 57.2273 45.521 57.4511 45.521 57.7273H46.521ZM45.521 67.5035C45.521 67.7796 45.7448 68.0035 46.021 68.0035C46.2971 68.0035 46.521 67.7796 46.521 67.5035H45.521ZM13.2063 57.7273C13.2063 57.4511 12.9824 57.2273 12.7063 57.2273C12.4302 57.2273 12.2063 57.4511 12.2063 57.7273H13.2063ZM12.2063 67.5035C12.2063 67.7796 12.4302 68.0035 12.7063 68.0035C12.9824 68.0035 13.2063 67.7796 13.2063 67.5035H12.2063ZM1.5 4.9021C1.5 2.99642 2.99642 1.5 4.9021 1.5V0.5C2.44414 0.5 0.5 2.44414 0.5 4.9021H1.5ZM4.9021 1.5H20.5524V0.5H4.9021V1.5ZM20.5524 1.5C22.4546 1.5 23.9545 3.03487 23.9545 4.9021H24.9545C24.9545 2.48961 23.0139 0.5 20.5524 0.5V1.5ZM23.9545 4.9021V20.5524H24.9545V4.9021H23.9545ZM23.9545 20.5524C23.9545 22.4546 22.4197 23.9545 20.5524 23.9545V24.9545C22.9649 24.9545 24.9545 23.0139 24.9545 20.5524H23.9545ZM20.5524 23.9545H4.9021V24.9545H20.5524V23.9545ZM4.9021 23.9545C2.99992 23.9545 1.5 22.4197 1.5 20.5524H0.5C0.5 22.9649 2.44064 24.9545 4.9021 24.9545V23.9545ZM1.5 20.5524V4.9021H0.5V20.5524H1.5ZM8.3042 12.7063C8.3042 15.1678 10.2938 17.1084 12.7063 17.1084V16.1084C10.8391 16.1084 9.3042 14.6085 9.3042 12.7063H8.3042ZM12.7063 17.1084C15.1223 17.1084 17.1084 15.1223 17.1084 12.7063H16.1084C16.1084 14.57 14.57 16.1084 12.7063 16.1084V17.1084ZM17.1084 12.7063C17.1084 10.2448 15.1188 8.3042 12.7063 8.3042V9.3042C14.5735 9.3042 16.1084 10.8041 16.1084 12.7063H17.1084ZM12.7063 8.3042C10.2448 8.3042 8.3042 10.2938 8.3042 12.7063H9.3042C9.3042 10.8391 10.8041 9.3042 12.7063 9.3042V8.3042ZM8.3042 45.979C8.3042 48.4405 10.2938 50.3811 12.7063 50.3811V49.3811C10.8391 49.3811 9.3042 47.8812 9.3042 45.979H8.3042ZM12.7063 50.3811C15.1223 50.3811 17.1084 48.395 17.1084 45.979H16.1084C16.1084 47.8427 14.57 49.3811 12.7063 49.3811V50.3811ZM17.1084 45.979C17.1084 43.5176 15.1188 41.5769 12.7063 41.5769V42.5769C14.5735 42.5769 16.1084 44.0768 16.1084 45.979H17.1084ZM12.7063 41.5769C10.2448 41.5769 8.3042 43.5665 8.3042 45.979H9.3042C9.3042 44.1118 10.8041 42.5769 12.7063 42.5769V41.5769ZM8.3042 79.2518C8.3042 81.7132 10.2938 83.6538 12.7063 83.6538V82.6538C10.8391 82.6538 9.3042 81.1539 9.3042 79.2518H8.3042ZM12.7063 83.6538C15.1223 83.6538 17.1084 81.6678 17.1084 79.2518H16.1084C16.1084 81.1155 14.57 82.6538 12.7063 82.6538V83.6538ZM17.1084 79.2518C17.1084 76.7903 15.1188 74.8497 12.7063 74.8497V75.8497C14.5735 75.8497 16.1084 77.3496 16.1084 79.2518H17.1084ZM12.7063 74.8497C10.2448 74.8497 8.3042 76.8393 8.3042 79.2518H9.3042C9.3042 77.3845 10.8041 75.8497 12.7063 75.8497V74.8497ZM41.5769 12.7063C41.5769 15.1678 43.5665 17.1084 45.979 17.1084V16.1084C44.1118 16.1084 42.5769 14.6085 42.5769 12.7063H41.5769ZM45.979 17.1084C48.395 17.1084 50.3811 15.1223 50.3811 12.7063H49.3811C49.3811 14.57 47.8427 16.1084 45.979 16.1084V17.1084ZM50.3811 12.7063C50.3811 10.2448 48.3915 8.3042 45.979 8.3042V9.3042C47.8462 9.3042 49.3811 10.8041 49.3811 12.7063H50.3811ZM45.979 8.3042C43.5176 8.3042 41.5769 10.2938 41.5769 12.7063H42.5769C42.5769 10.8391 44.0768 9.3042 45.979 9.3042V8.3042ZM74.8497 12.7063C74.8497 15.1678 76.8393 17.1084 79.2518 17.1084V16.1084C77.3845 16.1084 75.8497 14.6085 75.8497 12.7063H74.8497ZM79.2518 17.1084C81.7132 17.1084 83.6538 15.1188 83.6538 12.7063H82.6538C82.6538 14.5735 81.1539 16.1084 79.2518 16.1084V17.1084ZM83.6538 12.7063C83.6538 10.2518 81.6712 8.26224 79.2518 8.26224V9.26224C81.112 9.26224 82.6538 10.7971 82.6538 12.7063H83.6538ZM79.2518 8.26224C76.7903 8.26224 74.8497 10.2518 74.8497 12.6643H75.8497C75.8497 10.7971 77.3496 9.26224 79.2518 9.26224V8.26224ZM41.5769 45.979C41.5769 48.4405 43.5665 50.3811 45.979 50.3811V49.3811C44.1118 49.3811 42.5769 47.8812 42.5769 45.979H41.5769ZM45.979 50.3811C48.395 50.3811 50.3811 48.395 50.3811 45.979H49.3811C49.3811 47.8427 47.8427 49.3811 45.979 49.3811V50.3811ZM50.3811 45.979C50.3811 43.5176 48.3915 41.5769 45.979 41.5769V42.5769C47.8462 42.5769 49.3811 44.0768 49.3811 45.979H50.3811ZM45.979 41.5769C43.5176 41.5769 41.5769 43.5665 41.5769 45.979H42.5769C42.5769 44.1118 44.0768 42.5769 45.979 42.5769V41.5769ZM74.8497 45.979C74.8497 48.4405 76.8393 50.3811 79.2518 50.3811V49.3811C77.3845 49.3811 75.8497 47.8812 75.8497 45.979H74.8497ZM79.2518 50.3811C81.7132 50.3811 83.6538 48.3915 83.6538 45.979H82.6538C82.6538 47.8463 81.1539 49.3811 79.2518 49.3811V50.3811ZM83.6538 45.979C83.6538 43.5246 81.6712 41.535 79.2518 41.535V42.535C81.112 42.535 82.6538 44.0699 82.6538 45.979H83.6538ZM79.2518 41.535C76.7903 41.535 74.8497 43.5246 74.8497 45.9371H75.8497C75.8497 44.0698 77.3496 42.535 79.2518 42.535V41.535ZM41.5769 79.2518C41.5769 81.7132 43.5665 83.6538 45.979 83.6538V82.6538C44.1118 82.6538 42.5769 81.1539 42.5769 79.2518H41.5769ZM45.979 83.6538C48.395 83.6538 50.3811 81.6678 50.3811 79.2518H49.3811C49.3811 81.1155 47.8427 82.6538 45.979 82.6538V83.6538ZM50.3811 79.2518C50.3811 76.7903 48.3915 74.8497 45.979 74.8497V75.8497C47.8462 75.8497 49.3811 77.3496 49.3811 79.2518H50.3811ZM45.979 74.8497C43.5176 74.8497 41.5769 76.8393 41.5769 79.2518H42.5769C42.5769 77.3845 44.0768 75.8497 45.979 75.8497V74.8497ZM74.8497 79.2518C74.8497 81.7132 76.8393 83.6538 79.2518 83.6538V82.6538C77.3845 82.6538 75.8497 81.1539 75.8497 79.2518H74.8497ZM79.2518 83.6538C81.7132 83.6538 83.6538 81.6642 83.6538 79.2518H82.6538C82.6538 81.119 81.1539 82.6538 79.2518 82.6538V83.6538ZM83.6538 79.2518C83.6538 76.7973 81.6712 74.8077 79.2518 74.8077V75.8077C81.112 75.8077 82.6538 77.3426 82.6538 79.2518H83.6538ZM79.2518 74.8077C76.7903 74.8077 74.8497 76.7973 74.8497 79.2098H75.8497C75.8497 77.3426 77.3496 75.8077 79.2518 75.8077V74.8077ZM34.7727 4.9021C34.7727 2.99992 36.3076 1.5 38.1748 1.5V0.5C35.7623 0.5 33.7727 2.44064 33.7727 4.9021H34.7727ZM38.1748 1.5H53.8252V0.5H38.1748V1.5ZM53.8252 1.5C55.7274 1.5 57.2273 3.03487 57.2273 4.9021H58.2273C58.2273 2.48961 56.2866 0.5 53.8252 0.5V1.5ZM57.2273 4.9021V20.5524H58.2273V4.9021H57.2273ZM57.2273 20.5524C57.2273 22.4546 55.6924 23.9545 53.8252 23.9545V24.9545C56.2377 24.9545 58.2273 23.0139 58.2273 20.5524H57.2273ZM53.8252 23.9545H38.1748V24.9545H53.8252V23.9545ZM38.1748 23.9545C36.2726 23.9545 34.7727 22.4197 34.7727 20.5524H33.7727C33.7727 22.9649 35.7134 24.9545 38.1748 24.9545V23.9545ZM34.7727 20.5524V4.9021H33.7727V20.5524H34.7727ZM68.0455 4.9021C68.0455 2.99992 69.5803 1.5 71.4476 1.5V0.5C69.0351 0.5 67.0455 2.44064 67.0455 4.9021H68.0455ZM71.4476 1.5H87.0979V0.5H71.4476V1.5ZM87.0979 1.5C89.0001 1.5 90.5 3.03487 90.5 4.9021H91.5C91.5 2.48961 89.5594 0.5 87.0979 0.5V1.5ZM90.5 4.9021V20.5524H91.5V4.9021H90.5ZM90.5 20.5524C90.5 22.4546 88.9651 23.9545 87.0979 23.9545V24.9545C89.5104 24.9545 91.5 23.0139 91.5 20.5524H90.5ZM87.0979 23.9545H71.4476V24.9545H87.0979V23.9545ZM71.4476 23.9545C69.5454 23.9545 68.0455 22.4197 68.0455 20.5524H67.0455C67.0455 22.9649 68.9861 24.9545 71.4476 24.9545V23.9545ZM68.0455 20.5524V4.9021H67.0455V20.5524H68.0455ZM1.5 38.1748C1.5 36.2726 3.03487 34.7727 4.9021 34.7727V33.7727C2.48961 33.7727 0.5 35.7134 0.5 38.1748H1.5ZM4.9021 34.7727H20.5524V33.7727H4.9021V34.7727ZM20.5524 34.7727C22.4546 34.7727 23.9545 36.3076 23.9545 38.1748H24.9545C24.9545 35.7623 23.0139 33.7727 20.5524 33.7727V34.7727ZM23.9545 38.1748V53.8252H24.9545V38.1748H23.9545ZM23.9545 53.8252C23.9545 55.7274 22.4197 57.2273 20.5524 57.2273V58.2273C22.9649 58.2273 24.9545 56.2866 24.9545 53.8252H23.9545ZM20.5524 57.2273H4.9021V58.2273H20.5524V57.2273ZM4.9021 57.2273C2.99992 57.2273 1.5 55.6924 1.5 53.8252H0.5C0.5 56.2377 2.44064 58.2273 4.9021 58.2273V57.2273ZM1.5 53.8252V38.1748H0.5V53.8252H1.5ZM1.5 71.4476C1.5 69.5454 3.03487 68.0455 4.9021 68.0455V67.0455C2.48961 67.0455 0.5 68.9861 0.5 71.4476H1.5ZM4.9021 68.0455H20.5524V67.0455H4.9021V68.0455ZM20.5524 68.0455C22.4546 68.0455 23.9545 69.5803 23.9545 71.4476H24.9545C24.9545 69.0351 23.0139 67.0455 20.5524 67.0455V68.0455ZM23.9545 71.4476V87.0979H24.9545V71.4476H23.9545ZM23.9545 87.0979C23.9545 89.0001 22.4197 90.5 20.5524 90.5V91.5C22.9649 91.5 24.9545 89.5594 24.9545 87.0979H23.9545ZM20.5524 90.5H4.9021V91.5H20.5524V90.5ZM4.9021 90.5C2.99992 90.5 1.5 88.9651 1.5 87.0979H0.5C0.5 89.5104 2.44064 91.5 4.9021 91.5V90.5ZM1.5 87.0979V71.4476H0.5V87.0979H1.5ZM34.7727 38.1748C34.7727 36.2726 36.3076 34.7727 38.1748 34.7727V33.7727C35.7623 33.7727 33.7727 35.7134 33.7727 38.1748H34.7727ZM38.1748 34.7727H53.8252V33.7727H38.1748V34.7727ZM53.8252 34.7727C55.7274 34.7727 57.2273 36.3076 57.2273 38.1748H58.2273C58.2273 35.7623 56.2866 33.7727 53.8252 33.7727V34.7727ZM57.2273 38.1748V53.8252H58.2273V38.1748H57.2273ZM57.2273 53.8252C57.2273 55.7274 55.6924 57.2273 53.8252 57.2273V58.2273C56.2377 58.2273 58.2273 56.2866 58.2273 53.8252H57.2273ZM53.8252 57.2273H38.1748V58.2273H53.8252V57.2273ZM38.1748 57.2273C36.2726 57.2273 34.7727 55.6924 34.7727 53.8252H33.7727C33.7727 56.2377 35.7134 58.2273 38.1748 58.2273V57.2273ZM34.7727 53.8252V38.1748H33.7727V53.8252H34.7727ZM34.7727 71.4476C34.7727 69.5454 36.3076 68.0455 38.1748 68.0455V67.0455C35.7623 67.0455 33.7727 68.9861 33.7727 71.4476H34.7727ZM38.1748 68.0455H53.8252V67.0455H38.1748V68.0455ZM53.8252 68.0455C55.7274 68.0455 57.2273 69.5803 57.2273 71.4476H58.2273C58.2273 69.0351 56.2866 67.0455 53.8252 67.0455V68.0455ZM57.2273 71.4476V87.0979H58.2273V71.4476H57.2273ZM57.2273 87.0979C57.2273 89.0001 55.6924 90.5 53.8252 90.5V91.5C56.2377 91.5 58.2273 89.5594 58.2273 87.0979H57.2273ZM53.8252 90.5H38.1748V91.5H53.8252V90.5ZM38.1748 90.5C36.2726 90.5 34.7727 88.9651 34.7727 87.0979H33.7727C33.7727 89.5104 35.7134 91.5 38.1748 91.5V90.5ZM34.7727 87.0979V71.4476H33.7727V87.0979H34.7727ZM68.0455 38.1748C68.0455 36.2726 69.5803 34.7727 71.4476 34.7727V33.7727C69.0351 33.7727 67.0455 35.7134 67.0455 38.1748H68.0455ZM71.4476 34.7727H87.0979V33.7727H71.4476V34.7727ZM87.0979 34.7727C89.0001 34.7727 90.5 36.3076 90.5 38.1748H91.5C91.5 35.7623 89.5594 33.7727 87.0979 33.7727V34.7727ZM90.5 38.1748V53.8252H91.5V38.1748H90.5ZM90.5 53.8252C90.5 55.7274 88.9651 57.2273 87.0979 57.2273V58.2273C89.5104 58.2273 91.5 56.2866 91.5 53.8252H90.5ZM87.0979 57.2273H71.4476V58.2273H87.0979V57.2273ZM71.4476 57.2273C69.5454 57.2273 68.0455 55.6924 68.0455 53.8252H67.0455C67.0455 56.2377 68.9861 58.2273 71.4476 58.2273V57.2273ZM68.0455 53.8252V38.1748H67.0455V53.8252H68.0455ZM68.0455 71.4476C68.0455 69.5454 69.5803 68.0455 71.4476 68.0455V67.0455C69.0351 67.0455 67.0455 68.9861 67.0455 71.4476H68.0455ZM71.4476 68.0455H87.0979V67.0455H71.4476V68.0455ZM87.0979 68.0455C89.0001 68.0455 90.5 69.5803 90.5 71.4476H91.5C91.5 69.0351 89.5594 67.0455 87.0979 67.0455V68.0455ZM90.5 71.4476V87.0979H91.5V71.4476H90.5ZM90.5 87.0979C90.5 89.0001 88.9651 90.5 87.0979 90.5V91.5C89.5104 91.5 91.5 89.5594 91.5 87.0979H90.5ZM87.0979 90.5H71.4476V91.5H87.0979V90.5ZM71.4476 90.5C69.5454 90.5 68.0455 88.9651 68.0455 87.0979H67.0455C67.0455 89.5104 68.9861 91.5 71.4476 91.5V90.5ZM68.0455 87.0979V71.4476H67.0455V87.0979H68.0455ZM24.4545 13.2063H34.2308V12.2063H24.4545V13.2063ZM24.4545 46.479H34.2308V45.479H24.4545V46.479ZM24.4545 79.7937H34.2308V78.7937H24.4545V79.7937ZM57.7273 13.2063H67.5035V12.2063H57.7273V13.2063ZM57.7273 46.479H67.5035V45.479H57.7273V46.479ZM57.7273 79.7937H67.5035V78.7937H57.7273V79.7937ZM78.7937 24.4545V34.2308H79.7937V24.4545H78.7937ZM45.521 24.4545V34.2308H46.521V24.4545H45.521ZM12.2063 24.4545V34.2308H13.2063V24.4545H12.2063ZM78.7937 57.7273V67.5035H79.7937V57.7273H78.7937ZM45.521 57.7273V67.5035H46.521V57.7273H45.521ZM12.2063 57.7273V67.5035H13.2063V57.7273H12.2063Z" fill="white"/>
</svg>
