<svg width="92" height="92" viewBox="0 0 92 92" fill="none" xmlns="http://www.w3.org/2000/svg">
<path d="M8.82254 48.4353C9.09869 48.4353 9.32254 48.2114 9.32254 47.9353C9.32254 47.6591 9.09869 47.4353 8.82254 47.4353V48.4353ZM82.6775 38.1571C82.6775 38.4332 82.9013 38.6571 83.1775 38.6571C83.4536 38.6571 83.6775 38.4332 83.6775 38.1571H82.6775ZM45.9796 71.9436C46.2558 71.9436 46.4796 71.7198 46.4796 71.4436C46.4796 71.1675 46.2558 70.9436 45.9796 70.9436V71.9436ZM51.8873 48.476C52.1634 48.476 52.3873 48.2521 52.3873 47.976C52.3873 47.6999 52.1634 47.476 51.8873 47.476V48.476ZM63.6211 59.6691H63.1211C63.1211 59.9452 63.345 60.1691 63.6211 60.1691V59.6691ZM83.1775 59.6691V60.1691C83.4536 60.1691 83.6775 59.9452 83.6775 59.6691H83.1775ZM82.6775 16.6451C82.6775 18.5924 81.9138 20.461 80.5423 21.8325L81.2494 22.5396C82.8114 20.9776 83.6775 18.8535 83.6775 16.6451H82.6775ZM80.5423 21.8325C79.1708 23.204 77.3023 23.9676 75.3549 23.9676V24.9676C77.5633 24.9676 79.6875 24.1016 81.2494 22.5396L80.5423 21.8325ZM75.3549 23.9676H8.82254V24.9676H75.3549V23.9676ZM8.82254 23.9676C6.87518 23.9676 5.00661 23.204 3.63513 21.8325L2.92802 22.5396C4.49 24.1016 6.61418 24.9676 8.82254 24.9676V23.9676ZM3.63513 21.8325C2.26365 20.461 1.5 18.5924 1.5 16.6451H0.5C0.5 18.8535 1.36605 20.9776 2.92802 22.5396L3.63513 21.8325ZM1.5 16.6451V8.82254H0.5V16.6451H1.5ZM1.5 8.82254C1.5 6.87518 2.26365 5.00661 3.63513 3.63513L2.92802 2.92802C1.36605 4.49 0.5 6.61418 0.5 8.82254H1.5ZM3.63513 3.63513C5.00661 2.26365 6.87518 1.5 8.82254 1.5V0.5C6.61418 0.5 4.49 1.36605 2.92802 2.92802L3.63513 3.63513ZM8.82254 1.5H75.3549V0.5H8.82254V1.5ZM75.3549 1.5C77.3023 1.5 79.1708 2.26365 80.5423 3.63513L81.2494 2.92802C79.6875 1.36605 77.5633 0.5 75.3549 0.5V1.5ZM80.5423 3.63513C81.9138 5.00661 82.6775 6.87518 82.6775 8.82254H83.6775C83.6775 6.61418 82.8114 4.49 81.2494 2.92802L80.5423 3.63513ZM82.6775 8.82254V16.6451H83.6775V8.82254H82.6775ZM8.82254 47.4353C6.87518 47.4353 5.00661 46.6716 3.63513 45.3001L2.92802 46.0072C4.49 47.5692 6.61418 48.4353 8.82254 48.4353V47.4353ZM3.63513 45.3001C2.26365 43.9287 1.5 42.0601 1.5 40.1127H0.5C0.5 42.3211 1.36605 44.4453 2.92802 46.0072L3.63513 45.3001ZM1.5 40.1127V32.2902H0.5V40.1127H1.5ZM1.5 32.2902C1.5 30.3428 2.26365 28.4742 3.63513 27.1028L2.92802 26.3957C1.36605 27.9576 0.5 30.0818 0.5 32.2902H1.5ZM3.63513 27.1028C5.00661 25.7313 6.87518 24.9676 8.82254 24.9676V23.9676C6.61418 23.9676 4.49 24.8337 2.92802 26.3957L3.63513 27.1028ZM75.3549 24.9676C77.3023 24.9676 79.1708 25.7313 80.5423 27.1028L81.2494 26.3957C79.6875 24.8337 77.5633 23.9676 75.3549 23.9676V24.9676ZM80.5423 27.1028C81.9138 28.4742 82.6775 30.3428 82.6775 32.2902H83.6775C83.6775 30.0818 82.8114 27.9576 81.2494 26.3957L80.5423 27.1028ZM82.6775 32.2902V38.1571H83.6775V32.2902H82.6775ZM45.9796 70.9436H8.82254V71.9436H45.9796V70.9436ZM8.82254 70.9436C6.87518 70.9436 5.00661 70.18 3.63513 68.8085L2.92802 69.5156C4.49 71.0776 6.61418 71.9436 8.82254 71.9436V70.9436ZM3.63513 68.8085C2.26365 67.437 1.5 65.5685 1.5 63.6211H0.5C0.5 65.8295 1.36605 67.9537 2.92802 69.5156L3.63513 68.8085ZM1.5 63.6211V55.7985H0.5V63.6211H1.5ZM1.5 55.7985C1.5 53.8512 2.26365 51.9826 3.63513 50.6111L2.92802 49.904C1.36605 51.466 0.5 53.5902 0.5 55.7985H1.5ZM3.63513 50.6111C5.00661 49.2397 6.87518 48.476 8.82254 48.476V47.476C6.61418 47.476 4.49 48.3421 2.92802 49.904L3.63513 50.6111ZM8.82254 48.476H51.8873V47.476H8.82254V48.476ZM90.5 87.0887C90.5 87.9782 90.1428 88.8685 89.5057 89.5057L90.2128 90.2128C91.0423 89.3832 91.5 88.2364 91.5 87.0887H90.5ZM89.5057 89.5057C88.8666 90.1447 88.0162 90.5 87.0887 90.5V91.5C88.2799 91.5 89.3851 91.0404 90.2128 90.2128L89.5057 89.5057ZM87.0887 90.5H59.7098V91.5H87.0887V90.5ZM59.7098 90.5C58.8204 90.5 57.93 90.1428 57.2929 89.5057L56.5858 90.2128C57.4153 91.0423 58.5621 91.5 59.7098 91.5V90.5ZM57.2929 89.5057C56.6538 88.8666 56.2985 88.0161 56.2985 87.0887H55.2985C55.2985 88.2799 55.7581 89.3851 56.5858 90.2128L57.2929 89.5057ZM56.2985 87.0887V63.6211H55.2985V87.0887H56.2985ZM56.2985 63.6211C56.2985 62.7317 56.6557 61.8413 57.2929 61.2042L56.5858 60.4971C55.7562 61.3266 55.2985 62.4734 55.2985 63.6211H56.2985ZM57.2929 61.2042C57.932 60.5651 58.7824 60.2098 59.7098 60.2098V59.2098C58.5186 59.2098 57.4134 59.6694 56.5858 60.4971L57.2929 61.2042ZM59.7098 60.2098H87.0887V59.2098H59.7098V60.2098ZM87.0887 60.2098C87.9782 60.2098 88.8685 60.567 89.5057 61.2042L90.2128 60.4971C89.3832 59.6675 88.2364 59.2098 87.0887 59.2098V60.2098ZM89.5057 61.2042C90.1447 61.8432 90.5 62.6937 90.5 63.6211H91.5C91.5 62.4299 91.0404 61.3247 90.2128 60.4971L89.5057 61.2042ZM90.5 63.6211V87.0887H91.5V63.6211H90.5ZM73.3993 80.9885C76.3644 80.9885 78.7884 78.5645 78.7884 75.5994H77.7884C77.7884 78.0122 75.8121 79.9885 73.3993 79.9885V80.9885ZM78.7884 75.5994C78.7884 72.6342 76.3644 70.2103 73.3993 70.2103V71.2103C75.8121 71.2103 77.7884 73.1865 77.7884 75.5994H78.7884ZM73.3993 70.2103C70.4341 70.2103 68.0102 72.6342 68.0102 75.5994H69.0102C69.0102 73.1865 70.9864 71.2103 73.3993 71.2103V70.2103ZM68.0102 75.5994C68.0102 78.5645 70.4341 80.9885 73.3993 80.9885V79.9885C70.9864 79.9885 69.0102 78.0122 69.0102 75.5994H68.0102ZM83.6775 53.8022C83.6775 51.0639 82.6075 48.4509 80.679 46.5224L79.9719 47.2295C81.7103 48.9679 82.6775 51.3254 82.6775 53.8022H83.6775ZM80.679 46.5224C78.7506 44.5939 76.1376 43.524 73.3993 43.524V44.524C75.876 44.524 78.2336 45.4912 79.9719 47.2295L80.679 46.5224ZM73.3993 43.524C70.661 43.524 68.048 44.5939 66.1195 46.5224L66.8266 47.2295C68.565 45.4912 70.9225 44.524 73.3993 44.524V43.524ZM66.1195 46.5224C64.1911 48.4509 63.1211 51.0639 63.1211 53.8022H64.1211C64.1211 51.3254 65.0883 48.9679 66.8266 47.2295L66.1195 46.5224ZM63.1211 53.8022V59.6691H64.1211V53.8022H63.1211ZM63.6211 60.1691H83.1775V59.1691H63.6211V60.1691ZM83.6775 59.6691V53.8022H82.6775V59.6691H83.6775ZM17.6229 13.2116C17.3694 13.2116 17.1451 12.9873 17.1451 12.7338H16.1451C16.1451 13.5396 16.8171 14.2116 17.6229 14.2116V13.2116ZM17.1451 12.7338C17.1451 12.4803 17.3694 12.256 17.6229 12.256V11.256C16.8171 11.256 16.1451 11.928 16.1451 12.7338H17.1451ZM17.6229 14.2116C18.4287 14.2116 19.1007 13.5396 19.1007 12.7338H18.1007C18.1007 12.9873 17.8764 13.2116 17.6229 13.2116V14.2116ZM19.1007 12.7338C19.1007 11.928 18.4287 11.256 17.6229 11.256V12.256C17.8764 12.256 18.1007 12.4803 18.1007 12.7338H19.1007ZM31.3124 13.2116C31.0588 13.2116 30.8345 12.9873 30.8345 12.7338H29.8345C29.8345 13.5396 30.5066 14.2116 31.3124 14.2116V13.2116ZM30.8345 12.7338C30.8345 12.4803 31.0588 12.256 31.3124 12.256V11.256C30.5066 11.256 29.8345 11.928 29.8345 12.7338H30.8345ZM31.3124 14.2116C32.1182 14.2116 32.7902 13.5396 32.7902 12.7338H31.7902C31.7902 12.9873 31.5659 13.2116 31.3124 13.2116V14.2116ZM32.7902 12.7338C32.7902 11.928 32.1182 11.256 31.3124 11.256V12.256C31.5659 12.256 31.7902 12.4803 31.7902 12.7338H32.7902ZM17.6229 36.6793C17.3694 36.6793 17.1451 36.455 17.1451 36.2015H16.1451C16.1451 37.0072 16.8171 37.6793 17.6229 37.6793V36.6793ZM17.1451 36.2015C17.1451 35.9479 17.3694 35.7236 17.6229 35.7236V34.7236C16.8171 34.7236 16.1451 35.3957 16.1451 36.2015H17.1451ZM17.6229 37.6793C18.4287 37.6793 19.1007 37.0072 19.1007 36.2015H18.1007C18.1007 36.455 17.8764 36.6793 17.6229 36.6793V37.6793ZM19.1007 36.2015C19.1007 35.3957 18.4287 34.7236 17.6229 34.7236V35.7236C17.8764 35.7236 18.1007 35.9479 18.1007 36.2015H19.1007ZM17.6229 60.1469C17.3694 60.1469 17.1451 59.9226 17.1451 59.6691H16.1451C16.1451 60.4749 16.8171 61.1469 17.6229 61.1469V60.1469ZM17.1451 59.6691C17.1451 59.4156 17.3694 59.1913 17.6229 59.1913V58.1913C16.8171 58.1913 16.1451 58.8633 16.1451 59.6691H17.1451ZM17.6229 61.1469C18.4287 61.1469 19.1007 60.4749 19.1007 59.6691H18.1007C18.1007 59.9226 17.8764 60.1469 17.6229 60.1469V61.1469ZM19.1007 59.6691C19.1007 58.8633 18.4287 58.1913 17.6229 58.1913V59.1913C17.8764 59.1913 18.1007 59.4156 18.1007 59.6691H19.1007ZM31.3124 36.6793C31.0588 36.6793 30.8345 36.455 30.8345 36.2015H29.8345C29.8345 37.0072 30.5066 37.6793 31.3124 37.6793V36.6793ZM30.8345 36.2015C30.8345 35.9479 31.0588 35.7236 31.3124 35.7236V34.7236C30.5066 34.7236 29.8345 35.3957 29.8345 36.2015H30.8345ZM31.3124 37.6793C32.1182 37.6793 32.7902 37.0072 32.7902 36.2015H31.7902C31.7902 36.455 31.5659 36.6793 31.3124 36.6793V37.6793ZM32.7902 36.2015C32.7902 35.3957 32.1182 34.7236 31.3124 34.7236V35.7236C31.5659 35.7236 31.7902 35.9479 31.7902 36.2015H32.7902ZM31.3124 60.1469C31.0588 60.1469 30.8345 59.9226 30.8345 59.6691H29.8345C29.8345 60.4749 30.5066 61.1469 31.3124 61.1469V60.1469ZM30.8345 59.6691C30.8345 59.4156 31.0588 59.1913 31.3124 59.1913V58.1913C30.5066 58.1913 29.8345 58.8633 29.8345 59.6691H30.8345ZM31.3124 61.1469C32.1182 61.1469 32.7902 60.4749 32.7902 59.6691H31.7902C31.7902 59.9226 31.5659 60.1469 31.3124 60.1469V61.1469ZM32.7902 59.6691C32.7902 58.8633 32.1182 58.1913 31.3124 58.1913V59.1913C31.5659 59.1913 31.7902 59.4156 31.7902 59.6691H32.7902Z" fill="#FC15EF"/>
</svg>
