<svg width="92" height="92" viewBox="0 0 92 92" fill="none" xmlns="http://www.w3.org/2000/svg">
<path d="M75.3945 16.6468C75.3945 25.2752 58.7156 32.2936 38.1972 32.2936C17.6789 32.2936 1.04128 25.2752 1.04128 16.6468C1 7.97706 17.6376 1 38.1972 1C58.7569 1 75.3945 7.97706 75.3945 16.6468ZM75.3945 16.6468V34.2752M38.1972 47.9404C17.6789 47.9404 1.04128 40.922 1.04128 32.2936M32.3349 65.3624C14.5826 64.2064 1.04128 57.7248 1.04128 49.922M34.2752 83.0734C15.5734 82.2477 1 75.6009 1 67.5092V16.6468M60.4083 65.9404L74.6927 57.3532M61.0275 73.7018L74.0321 78.9037M44.0596 70.4404C44.0596 75.3119 48.0229 79.2339 52.8532 79.2339C57.6835 79.2339 61.6468 75.2706 61.6468 70.4404C61.6468 65.6101 57.6835 61.6468 52.8532 61.6468C48.0229 61.6468 44.0596 65.6101 44.0596 70.4404ZM73.4128 82.2064C73.4128 87.078 77.3761 91 82.2064 91C87.0367 91 91 87.0367 91 82.2064C91 77.3761 87.0367 73.4128 82.2064 73.4128C77.3761 73.4128 73.4128 77.3761 73.4128 82.2064ZM73.4128 52.8532C73.4128 57.7248 77.3761 61.6468 82.2064 61.6468C87.0367 61.6468 91 57.6835 91 52.8532C91 48.0229 87.0367 44.0596 82.2064 44.0596C77.3761 44.0596 73.4128 48.0229 73.4128 52.8532Z" stroke="#FC15EF" stroke-linecap="round" stroke-linejoin="round"/>
</svg>
