<svg width="92" height="92" viewBox="0 0 92 92" fill="none" xmlns="http://www.w3.org/2000/svg">
<path d="M49.0001 37.5C49.2762 37.5 49.5001 37.2761 49.5001 37C49.5001 36.7238 49.2762 36.5 49.0001 36.5V37.5ZM6.27209 31.7279L6.62564 31.3743L6.62564 31.3743L6.27209 31.7279ZM6.27209 6.27206L5.91853 5.91851L6.27209 6.27206ZM67 1V1.5L67.0001 1.5L67 1ZM77.7652 4.5713L77.4663 4.97209L77.4663 4.9721L77.7652 4.5713ZM84.2576 13.8718L83.7783 14.0142L83.7784 14.0143L84.2576 13.8718ZM83.8992 25.2084L84.3685 25.3809L84.3685 25.3809L83.8992 25.2084ZM76.559 33.6611C76.3277 33.8119 76.2624 34.1216 76.4131 34.353C76.5639 34.5843 76.8737 34.6496 77.105 34.4988L76.559 33.6611ZM31 73.4998C31.2761 73.4998 31.5 73.2759 31.5 72.9998C31.5 72.7236 31.2761 72.4998 31 72.4998V73.4998ZM6.27209 67.7278L6.62564 67.3742L6.62564 67.3742L6.27209 67.7278ZM6.27209 42.2722L6.62564 42.6257L6.62564 42.6257L6.27209 42.2722ZM40.0001 18.5C39.7239 18.5 39.5001 18.7238 39.5001 19C39.5001 19.2761 39.7239 19.5 40.0001 19.5V18.5ZM67 19.5C67.2762 19.5 67.5 19.2761 67.5 19C67.5 18.7238 67.2762 18.5 67 18.5V19.5ZM67.5 54.9998C67.5 54.7236 67.2762 54.4998 67 54.4998C66.7239 54.4998 66.5 54.7236 66.5 54.9998H67.5ZM66.5 78.9998C66.5 79.2759 66.7239 79.4998 67 79.4998C67.2762 79.4998 67.5 79.2759 67.5 78.9998H66.5ZM55 66.4998C54.7239 66.4998 54.5 66.7236 54.5 66.9998C54.5 67.2759 54.7239 67.4998 55 67.4998V66.4998ZM79 67.4998C79.2762 67.4998 79.5 67.2759 79.5 66.9998C79.5 66.7236 79.2762 66.4998 79 66.4998V67.4998ZM49.0001 36.5H19V37.5H49.0001V36.5ZM19 36.5C14.3587 36.5 9.90751 34.6562 6.62564 31.3743L5.91853 32.0814C9.38794 35.5509 14.0935 37.5 19 37.5V36.5ZM6.62564 31.3743C3.34373 28.0925 1.5 23.6413 1.5 19H0.5C0.5 23.9065 2.44909 28.612 5.91854 32.0814L6.62564 31.3743ZM1.5 19C1.5 14.3587 3.34373 9.90752 6.62564 6.62561L5.91853 5.91851C2.44909 9.38795 0.5 14.0935 0.5 19H1.5ZM6.62564 6.62561C9.90751 3.34374 14.3587 1.5 19 1.5V0.5C14.0935 0.5 9.38794 2.4491 5.91853 5.91851L6.62564 6.62561ZM19 1.5H67V0.5H19V1.5ZM67.0001 1.5C70.772 1.49921 74.4431 2.71705 77.4663 4.97209L78.0642 4.17052C74.8682 1.78659 70.9873 0.499162 66.9999 0.5L67.0001 1.5ZM77.4663 4.9721C80.4899 7.22719 82.7038 10.3987 83.7783 14.0142L84.7369 13.7293C83.601 9.90723 81.2605 6.55445 78.0642 4.1705L77.4663 4.9721ZM83.7784 14.0143C84.8532 17.6297 84.7307 21.4956 83.4299 25.036L84.3685 25.3809C85.7437 21.6383 85.8732 17.5514 84.7369 13.7293L83.7784 14.0143ZM83.4299 25.036C82.1287 28.5763 79.7187 31.6016 76.559 33.6611L77.105 34.4988C80.4453 32.3217 82.993 29.1236 84.3685 25.3809L83.4299 25.036ZM31 72.4998H19V73.4998H31V72.4998ZM19 72.4998C14.3587 72.4998 9.90751 70.656 6.62564 67.3742L5.91854 68.0813C9.38794 71.5507 14.0935 73.4998 19 73.4998V72.4998ZM6.62564 67.3742C3.34373 64.0924 1.5 59.6412 1.5 54.9998H0.5C0.5 59.9064 2.44909 64.6119 5.91854 68.0813L6.62564 67.3742ZM1.5 54.9998C1.5 50.3588 3.34373 45.9076 6.62564 42.6257L5.91854 41.9186C2.44909 45.388 0.5 50.0936 0.5 54.9998H1.5ZM6.62564 42.6257C9.90752 39.3439 14.3587 37.5 19 37.5V36.5C14.0935 36.5 9.38793 38.4493 5.91854 41.9186L6.62564 42.6257ZM40.0001 19.5H67V18.5H40.0001V19.5ZM67 91.4997C80.531 91.4997 91.5 80.5311 91.5 66.9998H90.5C90.5 79.9788 79.9787 90.4997 67 90.4997V91.4997ZM91.5 66.9998C91.5 53.4688 80.531 42.4998 67 42.4998V43.4998C79.9787 43.4998 90.5 54.0211 90.5 66.9998H91.5ZM67 42.4998C53.4691 42.4998 42.5001 53.4688 42.5001 66.9998H43.5001C43.5001 54.0211 54.0214 43.4998 67 43.4998V42.4998ZM42.5001 66.9998C42.5001 80.5311 53.4691 91.4997 67 91.4997V90.4997C54.0214 90.4997 43.5001 79.9788 43.5001 66.9998H42.5001ZM66.5 54.9998V78.9998H67.5V54.9998H66.5ZM55 67.4998H79V66.4998H55V67.4998ZM19 20C18.4477 20 18 19.5523 18 19H17C17 20.1045 17.8954 21 19 21V20ZM18 19C18 18.4477 18.4477 18 19 18V17C17.8954 17 17 17.8954 17 19H18ZM19 21C20.1045 21 21 20.1046 21 19H20C20 19.5523 19.5523 20 19 20V21ZM21 19C21 17.8954 20.1045 17 19 17V18C19.5523 18 20 18.4477 20 19H21ZM19 55.9998C18.4476 55.9998 18 55.5524 18 54.9998H17C17 56.1048 17.8955 56.9998 19 56.9998V55.9998ZM18 54.9998C18 54.4475 18.4477 53.9998 19 53.9998V52.9998C17.8954 52.9998 17 53.8952 17 54.9998H18ZM19 56.9998C20.1045 56.9998 21 56.1048 21 54.9998H20C20 55.5523 19.5523 55.9998 19 55.9998V56.9998ZM21 54.9998C21 53.8952 20.1045 52.9998 19 52.9998V53.9998C19.5523 53.9998 20 54.4475 20 54.9998H21Z" fill="white"/>
</svg>
