<svg width="31" height="31" viewBox="0 0 31 31" fill="none" xmlns="http://www.w3.org/2000/svg">
<rect x="0.304932" width="30.39" height="30.39" rx="15.195" fill="#5A0A93"/>
<rect x="0.804932" y="0.5" width="29.39" height="29.39" rx="14.695" stroke="white" stroke-opacity="0.4"/>
<path d="M17.5107 10.4657C17.7866 10.1898 18.2349 10.1898 18.5107 10.4657C18.7864 10.7415 18.7864 11.1897 18.5107 11.4653L14.4219 15.5535L18.5108 19.6415C18.7865 19.9174 18.7865 20.3656 18.5108 20.6414C18.2349 20.9171 17.7866 20.9171 17.5107 20.6414C15.9819 19.1132 14.453 17.5851 12.9241 16.057C12.858 15.9912 12.8056 15.9129 12.7702 15.8267C12.7347 15.7405 12.7168 15.6481 12.7176 15.5549C12.7176 15.3711 12.7854 15.1901 12.9241 15.0514C13.8414 14.1344 17.0521 10.9243 17.5107 10.4657Z" fill="white"/>
</svg>
