<svg width="31" height="31" viewBox="0 0 31 31" fill="none" xmlns="http://www.w3.org/2000/svg">
<rect width="30.39" height="30.39" rx="15.195" transform="matrix(-1 0 0 1 30.6949 0)" fill="#5A0A93"/>
<rect x="-0.5" y="0.5" width="29.39" height="29.39" rx="14.695" transform="matrix(-1 0 0 1 29.6949 0)" stroke="white" stroke-opacity="0.4"/>
<path d="M13.4892 10.4657C13.2133 10.1898 12.765 10.1898 12.4891 10.4657C12.2134 10.7415 12.2134 11.1897 12.4891 11.4653L16.578 15.5535L12.4891 19.6415C12.2134 19.9174 12.2134 20.3656 12.4891 20.6414C12.765 20.9171 13.2133 20.9171 13.4892 20.6414C15.018 19.1132 16.5469 17.5851 18.0758 16.057C18.1419 15.9912 18.1942 15.9129 18.2297 15.8267C18.2652 15.7405 18.2831 15.6481 18.2823 15.5549C18.2823 15.3711 18.2145 15.1901 18.0758 15.0514C17.1585 14.1344 13.9477 10.9243 13.4892 10.4657Z" fill="white"/>
</svg>
