<svg xmlns="http://www.w3.org/2000/svg" xmlns:xlink="http://www.w3.org/1999/xlink" fill="none" version="1.1" width="40" height="40" viewBox="0 0 40 40"><defs><clipPath id="master_svg0_0_7166"><rect x="8" y="8" width="24" height="24" rx="0"/></clipPath><clipPath id="master_svg1_0_7167"><rect x="8" y="8" width="24" height="24" rx="0"/></clipPath><clipPath id="master_svg2_0_7168"><rect x="8" y="8" width="24" height="24" rx="0"/></clipPath></defs><g><rect x="0" y="0" width="40" height="40" rx="10" fill="#320A8C" fill-opacity="0.4000000059604645"/><rect x="0.5" y="0.5" width="39" height="39" rx="9.5" fill-opacity="0" stroke-opacity="0.4000000059604645" stroke="#FFFFFF" fill="none" stroke-width="1"/><g clip-path="url(#master_svg0_0_7166)"><g clip-path="url(#master_svg1_0_7167)"><g clip-path="url(#master_svg2_0_7168)"><g><path d="M27.30367774410248,13.336722584915162C25.921677744102478,12.702288584915161,24.46227774410248,12.25260358491516,22.962877744102478,11.999272584915161C22.77197774410248,12.32872758491516,22.559277744102477,12.773818584915162,22.41087774410248,13.12400258491516C20.816477744102478,12.89049858491516,19.19658774410248,12.89049858491516,17.602177744102477,13.12400258491516C17.435307744102477,12.74092758491516,17.25111774410248,12.36563158491516,17.050177744102477,11.999272584915161C15.52290774410248,12.253454584915161,14.068727744102478,12.710545584915161,12.708367744102478,13.336722584915162C9.960363744102478,17.39054258491516,9.217454744102477,21.34836258491516,9.588363644102477,25.25377258491516C11.198017744102478,26.43567258491516,12.996157744102478,27.33637258491516,14.906547744102479,27.917772584915163C15.331997744102477,27.34507258491516,15.713817744102478,26.728772584915163,16.042177744102478,26.08177258491516C15.419937744102478,25.849272584915163,14.819727744102478,25.56157258491516,14.248727744102478,25.22217258491516C14.397087744102478,25.116372584915162,14.546547744102478,24.99967258491516,14.685087744102479,24.882872584915162C18.143277744102477,26.46477258491516,21.89057774410248,26.46477258491516,25.30837774410248,24.882872584915162C25.45667774410248,24.99967258491516,25.59527774410248,25.116372584915162,25.743677744102477,25.22217258491516C25.169777744102475,25.56257258491516,24.57637774410248,25.84837258491516,23.950177744102476,26.08177258491516C24.278577744102478,26.72977258491516,24.661477744102477,27.34507258491516,25.08467774410248,27.917772584915163C26.99577774410248,27.33807258491516,28.794277744102477,26.437272584915164,30.40287774410248,25.25377258491516C30.859977744102476,20.733092584915163,29.68067774410248,16.80691258491516,27.30367774410248,13.336722584915162ZM16.51999774410248,22.84507258491516C15.480367744102477,22.84507258491516,14.63054774410248,21.90036258491516,14.63054774410248,20.74400258491516C14.63054774410248,19.587632584915163,15.459637744102478,18.642912584915162,16.51999774410248,18.642912584915162C17.570547744102477,18.642912584915162,18.43017774410248,19.587632584915163,18.409457744102475,20.74400258491516C18.409457744102475,21.90036258491516,17.570547744102477,22.84507258491516,16.51999774410248,22.84507258491516ZM23.49417774410248,22.84507258491516C22.45347774410248,22.84507258491516,21.603677744102477,21.90036258491516,21.603677744102477,20.74400258491516C21.603677744102477,19.587632584915163,22.432677744102477,18.642912584915162,23.49307774410248,18.642912584915162C24.543677744102478,18.642912584915162,25.404377744102476,19.587632584915163,25.382577744102477,20.74400258491516C25.382577744102477,21.90036258491516,24.554577744102478,22.84507258491516,23.49417774410248,22.84507258491516Z" fill="#FFFFFF" fill-opacity="1"/></g></g></g></g></g></svg>