<svg width="40" height="40" viewBox="0 0 40 40" fill="none" xmlns="http://www.w3.org/2000/svg">
<g filter="url(#filter0_bi_1473_2397)">
<rect width="40" height="40" rx="10" fill="#320A8C" fill-opacity="0.05"/>
<rect x="0.5" y="0.5" width="39" height="39" rx="9.5" stroke="#0AEAF1"/>
<path fill-rule="evenodd" clip-rule="evenodd" d="M10 14.1429C10 13.5745 10.2258 13.0295 10.6276 12.6276C11.0295 12.2258 11.5745 12 12.1429 12H27.8571C28.4255 12 28.9705 12.2258 29.3724 12.6276C29.7742 13.0295 30 13.5745 30 14.1429V14.6314L20.5471 20.9343C20.3821 21.0336 20.1926 21.0846 20 21.0814C19.8074 21.0846 19.6179 21.0336 19.4529 20.9343L10 14.6314V14.1429ZM10 16.7771V26.2857C10 26.854 10.2258 27.3991 10.6276 27.8009C11.0295 28.2028 11.5745 28.4286 12.1429 28.4286H27.8571C28.4255 28.4286 28.9705 28.2028 29.3724 27.8009C29.7742 27.3991 30 26.854 30 26.2857V16.7771L21.5329 22.4229L21.5257 22.4286C21.0699 22.7184 20.5402 22.8707 20 22.8671C19.4643 22.8671 18.9243 22.7214 18.4743 22.4286L18.4671 22.4229L10 16.7771Z" fill="#0AEAF1"/>
</g>
<defs>
<filter id="filter0_bi_1473_2397" x="-30" y="-30" width="100" height="100" filterUnits="userSpaceOnUse" color-interpolation-filters="sRGB">
<feFlood flood-opacity="0" result="BackgroundImageFix"/>
<feGaussianBlur in="BackgroundImageFix" stdDeviation="15"/>
<feComposite in2="SourceAlpha" operator="in" result="effect1_backgroundBlur_1473_2397"/>
<feBlend mode="normal" in="SourceGraphic" in2="effect1_backgroundBlur_1473_2397" result="shape"/>
<feColorMatrix in="SourceAlpha" type="matrix" values="0 0 0 0 0 0 0 0 0 0 0 0 0 0 0 0 0 0 127 0" result="hardAlpha"/>
<feOffset/>
<feGaussianBlur stdDeviation="3"/>
<feComposite in2="hardAlpha" operator="arithmetic" k2="-1" k3="1"/>
<feColorMatrix type="matrix" values="0 0 0 0 0.0392157 0 0 0 0 0.917647 0 0 0 0 0.945098 0 0 0 1 0"/>
<feBlend mode="normal" in2="shape" result="effect2_innerShadow_1473_2397"/>
</filter>
</defs>
</svg>
