<svg width="208" height="52" viewBox="0 0 208 52" fill="none" xmlns="http://www.w3.org/2000/svg">
<path d="M131.13 12.9915C131.13 11.5715 132.304 10.4173 133.748 10.4173C135.192 10.4173 136.366 11.5715 136.366 12.9915C136.366 14.4115 135.192 15.5657 133.748 15.5657C132.304 15.5657 131.13 14.4115 131.13 12.9915Z" fill="#FB15EE"/>
<path d="M136.358 20.995C136.358 19.575 135.184 18.4208 133.74 18.4208C132.296 18.4208 131.122 19.575 131.122 20.995V36.4175C131.122 37.8374 132.296 38.9917 133.74 38.9917C135.184 38.9917 136.358 37.8374 136.358 36.4175V20.995Z" fill="#FB15EE"/>
<path d="M90.8061 18.4208C85.029 18.4208 80.3487 23.0225 80.3487 28.7024C80.3487 34.3824 85.029 38.9841 90.8061 38.9841C96.5831 38.9841 101.263 34.3824 101.263 28.7024C101.263 23.0225 96.5831 18.4208 90.8061 18.4208ZM90.8061 33.8509C87.9175 33.8509 85.5774 31.55 85.5774 28.71C85.5774 25.8701 87.9175 23.5692 90.8061 23.5692C93.6946 23.5692 96.0348 25.8701 96.0348 28.71C96.0348 31.55 93.6946 33.8509 90.8061 33.8509Z" fill="#FB15EE"/>
<path d="M174.396 18.4208C168.619 18.4208 163.938 23.0225 163.938 28.7024C163.938 34.3824 168.619 38.9841 174.396 38.9841C180.173 38.9841 184.853 34.3824 184.853 28.7024C184.853 23.0225 180.173 18.4208 174.396 18.4208ZM174.396 33.8509C171.507 33.8509 169.167 31.55 169.167 28.71C169.167 25.8701 171.507 23.5692 174.396 23.5692C177.284 23.5692 179.624 25.8701 179.624 28.71C179.624 31.55 177.284 33.8509 174.396 33.8509Z" fill="#0AE9F0"/>
<path d="M151.257 18.4208C149.256 18.4208 147.387 18.9752 145.796 19.9319C145.387 19.0435 144.476 18.4208 143.417 18.4208C141.973 18.4208 140.799 19.575 140.799 20.995V44.2312C140.799 45.6512 141.973 46.8054 143.417 46.8054C144.862 46.8054 146.036 45.6512 146.036 44.2312V37.6172C147.573 38.4905 149.357 38.9993 151.264 38.9993C157.041 38.9993 161.722 34.3976 161.722 28.7176C161.722 23.0377 157.041 18.436 151.264 18.436V18.4208H151.257ZM151.257 33.8509C148.376 33.8509 146.036 31.5576 146.028 28.7176V28.6949C146.028 25.8625 148.376 23.5616 151.257 23.5616C154.137 23.5616 156.485 25.8625 156.485 28.7024C156.485 31.5424 154.145 33.8433 151.257 33.8433V33.8509Z" fill="#0AE9F0"/>
<path d="M197.535 18.4208C195.535 18.4208 193.665 18.9752 192.074 19.9319C191.665 19.0435 190.754 18.4208 189.696 18.4208C188.251 18.4208 187.077 19.575 187.077 20.995V44.2312C187.077 45.6512 188.251 46.8054 189.696 46.8054C191.14 46.8054 192.314 45.6512 192.314 44.2312V37.6172C193.851 38.4905 195.635 38.9993 197.543 38.9993C203.32 38.9993 208 34.3976 208 28.7176C208 23.0377 203.32 18.436 197.543 18.436V18.4208H197.535ZM197.535 33.8509C194.654 33.8509 192.314 31.5576 192.306 28.7176V28.6949C192.306 25.8625 194.654 23.5616 197.535 23.5616C200.416 23.5616 202.764 25.8625 202.764 28.7024C202.764 31.5424 200.423 33.8433 197.535 33.8433V33.8509Z" fill="#0AE9F0"/>
<path d="M77.7382 33.8433H75.761C74.7801 33.8433 73.9769 33.0611 73.9769 32.0892V12.9839C73.9769 11.5639 72.803 10.4097 71.3587 10.4097C69.9144 10.4097 68.7405 11.5639 68.7405 12.9839V32.0892C68.7405 35.8935 71.8762 38.9841 75.7533 38.9841H77.7304C79.1747 38.9841 80.3487 37.8299 80.3487 36.4099C80.3487 34.9899 79.1747 33.8357 77.7304 33.8357L77.7382 33.8433Z" fill="#FB15EE"/>
<path d="M112.478 33.8433H110.501C109.52 33.8433 108.716 33.0611 108.716 32.0892V12.9839C108.716 11.5639 107.543 10.4097 106.098 10.4097C104.654 10.4097 103.48 11.5639 103.48 12.9839V32.0892C103.48 35.8935 106.616 38.9841 110.493 38.9841H112.47C113.914 38.9841 115.088 37.8299 115.088 36.4099C115.088 34.9899 113.914 33.8357 112.47 33.8357L112.478 33.8433Z" fill="#FB15EE"/>
<path d="M126.295 33.8433H124.318C123.337 33.8433 122.534 33.0611 122.534 32.0892V12.9839C122.534 11.5639 121.36 10.4097 119.915 10.4097C118.471 10.4097 117.297 11.5639 117.297 12.9839V32.0892C117.297 35.8935 120.433 38.9841 124.31 38.9841H126.287C127.731 38.9841 128.905 37.8299 128.905 36.4099C128.905 34.9899 127.731 33.8357 126.287 33.8357L126.295 33.8433Z" fill="#FB15EE"/>
<path d="M19.929 0.803719C5.80299 4.3347 -2.87804 18.8611 0.875499 32.7117C3.89532 43.8665 13.8507 51.3765 24.9569 51.9916C28.5482 52.189 31.29 48.8707 30.3555 45.4536L29.2433 41.3759C29.6758 41.2999 30.1083 41.2088 30.5331 41.0949C30.9579 40.981 31.3827 40.8519 31.7997 40.7076L32.9119 44.7854C33.8464 48.21 37.9089 49.7287 40.9287 47.7848C50.2276 41.8011 55.0161 30.4184 51.9808 19.2939C48.235 5.51929 33.9314 -2.6893 19.929 0.803719Z" fill="url(#paint0_radial_1313_58)"/>
<path d="M25.065 20.9873C13.6499 23.9943 5.00749 28.6795 5.76437 31.4587C6.52126 34.238 16.384 34.0481 27.8068 31.0411C39.2219 28.0341 47.8643 23.3489 47.1074 20.5696C46.3505 17.7904 36.4878 17.9803 25.065 20.9873ZM39.469 24.093C36.1325 25.7332 31.7457 27.3051 27.1194 28.5276C22.4854 29.7502 17.89 30.5399 14.1674 30.7601C11.665 30.912 10.0431 30.7601 9.08541 30.5855C9.82685 29.9552 11.1553 29.0364 13.4028 27.9353C16.7392 26.2951 21.1261 24.7233 25.7524 23.5007C30.3787 22.2782 34.9818 21.4885 38.7044 21.2682C41.2068 21.1164 42.8287 21.2682 43.7864 21.4429C43.0449 22.0732 41.7165 22.992 39.469 24.093Z" fill="white"/>
<path d="M5.3087 24.4271C6.33241 24.4271 7.1623 23.6112 7.1623 22.6047C7.1623 21.5982 6.33241 20.7823 5.3087 20.7823C4.28498 20.7823 3.45509 21.5982 3.45509 22.6047C3.45509 23.6112 4.28498 24.4271 5.3087 24.4271Z" fill="white"/>
<path d="M7.61025 17.0614C8.19462 17.0614 8.66835 16.5957 8.66835 16.0211C8.66835 15.4466 8.19462 14.9808 7.61025 14.9808C7.02588 14.9808 6.55215 15.4466 6.55215 16.0211C6.55215 16.5957 7.02588 17.0614 7.61025 17.0614Z" fill="white"/>
<path d="M28.4864 33.5545C24.2309 34.6784 20.068 35.4453 16.4149 35.8022C15.4958 35.8934 15.1405 37.0096 15.8202 37.6171C19.6818 41.0266 25.1577 42.5073 30.5408 41.0873C35.924 39.6673 39.917 35.6883 41.5234 30.8437C41.8092 29.978 40.9287 29.1883 40.0869 29.5604C36.7427 31.0487 32.742 32.4307 28.4864 33.547V33.5545Z" fill="#0AE9F0"/>
<path d="M22.3232 10.9411C13.8584 13.1736 8.83054 21.7314 11.1012 30.0539C11.1707 30.3121 11.2479 30.5627 11.3252 30.8057C12.113 30.8285 13.0475 30.8209 14.1596 30.7601C17.8823 30.5399 22.4777 29.7502 27.1117 28.5276C31.7457 27.3051 36.1325 25.7332 39.4613 24.093C40.4576 23.5995 41.2763 23.1514 41.9405 22.7414C41.8864 22.4832 41.8246 22.2326 41.7551 21.9744C39.4845 13.6519 30.7803 8.70857 22.3155 10.9411H22.3232Z" fill="#0AE9F0"/>
<defs>
<radialGradient id="paint0_radial_1313_58" cx="0" cy="0" r="1" gradientUnits="userSpaceOnUse" gradientTransform="translate(26.2996 25.5163) rotate(-14.759) scale(26.1606 25.7784)">
<stop stop-color="#A730D2"/>
<stop offset="0.21" stop-color="#AB2ED3"/>
<stop offset="0.43" stop-color="#B72AD7"/>
<stop offset="0.66" stop-color="#CC24DE"/>
<stop offset="0.88" stop-color="#E91AE8"/>
<stop offset="1" stop-color="#FB15EE"/>
</radialGradient>
</defs>
</svg>
