<svg xmlns="http://www.w3.org/2000/svg" xmlns:xlink="http://www.w3.org/1999/xlink" fill="none" version="1.1" width="36" height="36" viewBox="0 0 36 36"><defs><filter id="master_svg0_0_7542" filterUnits="objectBoundingBox" color-interpolation-filters="sRGB" x="0" y="0" width="1" height="1"><feFlood flood-opacity="0" result="BackgroundImageFix"/><feBlend mode="normal" in="SourceGraphic" in2="BackgroundImageFix" result="shape"/><feColorMatrix in="SourceAlpha" type="matrix" result="hardAlpha" values="0 0 0 0 0 0 0 0 0 0 0 0 0 0 0 0 0 0 127 0"/><feOffset dy="0" dx="0"/><feGaussianBlur stdDeviation="3"/><feComposite in2="hardAlpha" operator="arithmetic" k2="-1" k3="1"/><feColorMatrix type="matrix" values="0 0 0 0 0.03921568766236305 0 0 0 0 0.9176470637321472 0 0 0 0 0.9450980424880981 0 0 0 1 0"/><feBlend mode="normal" in2="shape" result="effect1_innerShadow"/><feGaussianBlur in="BackgroundImageFix" stdDeviation="15"/><feComposite in2="SourceAlpha" operator="in" result="effect2_foregroundBlur"/><feBlend mode="normal" in="SourceGraphic" in2="effect2_foregroundBlur" result="shape"/></filter><clipPath id="master_svg1_0_7544"><rect x="6" y="6" width="24" height="24" rx="0"/></clipPath></defs><g filter="url(#master_svg0_0_7542)"><rect x="0" y="0" width="36" height="36" rx="8" fill="#320A8C" fill-opacity="0.4000000059604645"/><rect x="0.5" y="0.5" width="35" height="35" rx="7.5" fill-opacity="0" stroke-opacity="1" stroke="#0AEAF1" fill="none" stroke-width="1"/><g clip-path="url(#master_svg1_0_7544)"><g><path d="M17.99927,8.0010912C16.68598,8.000804507,15.3855,8.259284,14.17213,8.761761C12.95876,9.264240000000001,11.85629,10.000869999999999,10.9277,10.92956C9.99911,11.85825,9.262599999999999,12.960799999999999,8.760254,14.17422C8.257909,15.38765,7.999571849,16.68816,8.00000181092,18.0015C7.99873836,20.1007,8.658619999999999,22.147,9.88601,23.85C11.1134,25.5531,12.84595,26.8263,14.83782,27.4891C15.33746,27.5764,15.525089999999999,27.2764,15.525089999999999,27.0135C15.525089999999999,26.7756,15.512,25.988,15.512,25.1513C12.99964,25.6138,12.34946,24.5382,12.14982,23.976399999999998C12.03746,23.6884,11.54982,22.8015,11.124369999999999,22.5636C10.775269999999999,22.375999999999998,10.27455,21.9135,11.11346,21.9015C11.9,21.8884,12.46291,22.625799999999998,12.649460000000001,22.9269C13.54946,24.4389,14.987269999999999,24.0135,15.56218,23.750500000000002C15.649460000000001,23.1015,15.91237,22.664,16.20037,22.4131C13.974910000000001,22.1633,11.65018,21.3004,11.65018,17.47564C11.65018,16.38909,12.03746,15.489090000000001,12.67564,14.788730000000001C12.57527,14.53782,12.22509,13.513449999999999,12.77491,12.13782C12.77491,12.13782,13.612729999999999,11.876,15.524000000000001,13.16327C16.338520000000003,12.93713,17.18013,12.82335,18.0255,12.82509C18.8753,12.82509,19.725099999999998,12.93855,20.5247,13.16327C22.4371,11.864,23.274900000000002,12.13782,23.274900000000002,12.13782C23.8247,13.513449999999999,23.4745,14.53782,23.3753,14.788730000000001C24.0124,15.489090000000001,24.4007,16.375999999999998,24.4007,17.47564C24.4007,21.313499999999998,22.0629,22.1633,19.8375,22.4131C20.1996,22.7262,20.512700000000002,23.3262,20.512700000000002,24.2633C20.512700000000002,25.6007,20.4996,26.6764,20.4996,27.0135C20.4996,27.2753,20.6873,27.5884,21.1869,27.4891C23.1725,26.819,24.8979,25.5431,26.1203,23.840899999999998C27.3426,22.1387,28.0003,20.096,28.0007,18.0004C28.0012,16.68707,27.7428,15.38656,27.2405,14.17313C26.7381,12.959710000000001,26.0016,11.85716,25.073,10.92847C24.1444,9.99977,23.042,9.26315,21.8286,8.76067C20.6152,8.258193,19.314799999999998,7.999713547,18.0015,8.000000238225C18.0015,8.000000238225,17.99927,8.0010912,17.99927,8.0010912Z" fill="#0AEAF1" fill-opacity="1"/></g></g></g></svg>