<svg width="40" height="40" viewBox="0 0 40 40" fill="none" xmlns="http://www.w3.org/2000/svg">
<g filter="url(#filter0_bi_1285_1886)">
<rect width="40" height="40" rx="10" fill="#320A8C" fill-opacity="0.4"/>
<rect x="0.5" y="0.5" width="39" height="39" rx="9.5" stroke="#0AEAF1"/>
<path d="M12.2836 14.445C13.5448 14.445 14.5672 13.4209 14.5672 12.1576C14.5672 10.8942 13.5448 9.87012 12.2836 9.87012C11.0224 9.87012 10 10.8942 10 12.1576C10 13.4209 11.0224 14.445 12.2836 14.445Z" fill="#0AEAF1"/>
<path d="M16.723 16.1783V28.8691H20.6567V22.5932C20.6567 20.9372 20.9677 19.3335 23.0175 19.3335C25.0392 19.3335 25.0642 21.2268 25.0642 22.6978V28.8701H29V21.9105C29 18.4919 28.2652 15.8647 24.2762 15.8647C22.361 15.8647 21.0773 16.9174 20.5523 17.9137H20.4991V16.1783H16.723ZM10.3127 16.1783H14.2526V28.8691H10.3127V16.1783Z" fill="#0AEAF1"/>
</g>
<defs>
<filter id="filter0_bi_1285_1886" x="-30" y="-30" width="100" height="100" filterUnits="userSpaceOnUse" color-interpolation-filters="sRGB">
<feFlood flood-opacity="0" result="BackgroundImageFix"/>
<feGaussianBlur in="BackgroundImageFix" stdDeviation="15"/>
<feComposite in2="SourceAlpha" operator="in" result="effect1_backgroundBlur_1285_1886"/>
<feBlend mode="normal" in="SourceGraphic" in2="effect1_backgroundBlur_1285_1886" result="shape"/>
<feColorMatrix in="SourceAlpha" type="matrix" values="0 0 0 0 0 0 0 0 0 0 0 0 0 0 0 0 0 0 127 0" result="hardAlpha"/>
<feOffset/>
<feGaussianBlur stdDeviation="3"/>
<feComposite in2="hardAlpha" operator="arithmetic" k2="-1" k3="1"/>
<feColorMatrix type="matrix" values="0 0 0 0 0.0392157 0 0 0 0 0.917647 0 0 0 0 0.945098 0 0 0 1 0"/>
<feBlend mode="normal" in2="shape" result="effect2_innerShadow_1285_1886"/>
</filter>
</defs>
</svg>
