<svg xmlns="http://www.w3.org/2000/svg" xmlns:xlink="http://www.w3.org/1999/xlink" fill="none" version="1.1" width="40" height="40" viewBox="0 0 40 40"><defs><filter id="master_svg0_0_7481" filterUnits="objectBoundingBox" color-interpolation-filters="sRGB" x="0" y="0" width="1" height="1"><feFlood flood-opacity="0" result="BackgroundImageFix"/><feBlend mode="normal" in="SourceGraphic" in2="BackgroundImageFix" result="shape"/><feColorMatrix in="SourceAlpha" type="matrix" result="hardAlpha" values="0 0 0 0 0 0 0 0 0 0 0 0 0 0 0 0 0 0 127 0"/><feOffset dy="0" dx="0"/><feGaussianBlur stdDeviation="3"/><feComposite in2="hardAlpha" operator="arithmetic" k2="-1" k3="1"/><feColorMatrix type="matrix" values="0 0 0 0 0.03921568766236305 0 0 0 0 0.9176470637321472 0 0 0 0 0.9450980424880981 0 0 0 1 0"/><feBlend mode="normal" in2="shape" result="effect1_innerShadow"/><feGaussianBlur in="BackgroundImageFix" stdDeviation="15"/><feComposite in2="SourceAlpha" operator="in" result="effect2_foregroundBlur"/><feBlend mode="normal" in="SourceGraphic" in2="effect2_foregroundBlur" result="shape"/></filter></defs><g filter="url(#master_svg0_0_7481)"><rect x="0" y="0" width="40" height="40" rx="10" fill="#320A8C" fill-opacity="0.4000000059604645"/><rect x="0.5" y="0.5" width="39" height="39" rx="9.5" fill-opacity="0" stroke-opacity="1" stroke="#0AEAF1" fill="none" stroke-width="1"/><g><path d="M12.28359,14.445037187499999C13.54478,14.445037187499999,14.56718,13.4209071875,14.56718,12.1575671875C14.56718,10.8942471875,13.54478,9.8701171875,12.28359,9.8701171875C11.0224,9.8701171875,10,10.8942471875,10,12.1575671875C10,13.4209071875,11.0224,14.445037187499999,12.28359,14.445037187499999ZM16.72305,16.1782871875C16.72305,16.1782871875,16.72305,28.8691171875,16.72305,28.8691171875C16.72305,28.8691171875,20.6567,28.8691171875,20.6567,28.8691171875C20.6567,28.8691171875,20.6567,22.593217187500002,20.6567,22.593217187500002C20.6567,20.9372171875,20.9677,19.3334671875,23.0175,19.3334671875C25.0392,19.3334671875,25.0642,21.2267171875,25.0642,22.6978171875C25.0642,22.6978171875,25.0642,28.8701171875,25.0642,28.8701171875C25.0642,28.8701171875,29,28.8701171875,29,28.8701171875C29,28.8701171875,29,21.910517187499998,29,21.910517187499998C29,18.491877187500002,28.2652,15.864647187500001,24.2762,15.864647187500001C22.361,15.864647187500001,21.0773,16.9174171875,20.552300000000002,17.9137471875C20.552300000000002,17.9137471875,20.4991,17.9137471875,20.4991,17.9137471875C20.4991,17.9137471875,20.4991,16.1782871875,20.4991,16.1782871875C20.4991,16.1782871875,16.72305,16.1782871875,16.72305,16.1782871875ZM10.312717,16.1782871875C10.312717,16.1782871875,14.25264,16.1782871875,14.25264,16.1782871875C14.25264,16.1782871875,14.25264,28.8691171875,14.25264,28.8691171875C14.25264,28.8691171875,10.312717,28.8691171875,10.312717,28.8691171875C10.312717,28.8691171875,10.312717,16.1782871875,10.312717,16.1782871875Z" fill="#0AEAF1" fill-opacity="1"/></g></g></svg>