<svg width="200" height="50" viewBox="0 0 200 50" fill="none" xmlns="http://www.w3.org/2000/svg">
<path d="M126.086 12.4918C126.086 11.1264 127.215 10.0166 128.604 10.0166C129.992 10.0166 131.121 11.1264 131.121 12.4918C131.121 13.8571 129.992 14.967 128.604 14.967C127.215 14.967 126.086 13.8571 126.086 12.4918Z" fill="#FB15EE"/>
<path d="M131.114 20.1875C131.114 18.8221 129.985 17.7123 128.596 17.7123C127.208 17.7123 126.079 18.8221 126.079 20.1875V35.0168C126.079 36.3821 127.208 37.492 128.596 37.492C129.985 37.492 131.114 36.3821 131.114 35.0168V20.1875Z" fill="#FB15EE"/>
<path d="M87.3135 17.7123C81.7587 17.7123 77.2583 22.137 77.2583 27.5985C77.2583 33.06 81.7587 37.4847 87.3135 37.4847C92.8684 37.4847 97.3687 33.06 97.3687 27.5985C97.3687 22.137 92.8684 17.7123 87.3135 17.7123ZM87.3135 32.5489C84.5361 32.5489 82.2859 30.3365 82.2859 27.6058C82.2859 24.875 84.5361 22.6627 87.3135 22.6627C90.091 22.6627 92.3411 24.875 92.3411 27.6058C92.3411 30.3365 90.091 32.5489 87.3135 32.5489Z" fill="#FB15EE"/>
<path d="M167.688 17.7123C162.133 17.7123 157.633 22.137 157.633 27.5985C157.633 33.06 162.133 37.4847 167.688 37.4847C173.243 37.4847 177.743 33.06 177.743 27.5985C177.743 22.137 173.243 17.7123 167.688 17.7123ZM167.688 32.5489C164.911 32.5489 162.661 30.3365 162.661 27.6058C162.661 24.875 164.911 22.6627 167.688 22.6627C170.466 22.6627 172.716 24.875 172.716 27.6058C172.716 30.3365 170.466 32.5489 167.688 32.5489Z" fill="#0AE9F0"/>
<path d="M145.439 17.7123C143.516 17.7123 141.719 18.2453 140.189 19.1653C139.795 18.311 138.919 17.7123 137.901 17.7123C136.513 17.7123 135.384 18.8221 135.384 20.1875V42.53C135.384 43.8953 136.513 45.0052 137.901 45.0052C139.29 45.0052 140.419 43.8953 140.419 42.53V36.1704C141.897 37.0101 143.612 37.4993 145.447 37.4993C151.001 37.4993 155.502 33.0746 155.502 27.6131C155.502 22.1516 151.001 17.7269 145.447 17.7269V17.7123H145.439ZM145.439 32.5489C142.669 32.5489 140.419 30.3438 140.411 27.6131V27.5912C140.411 24.8677 142.669 22.6554 145.439 22.6554C148.209 22.6554 150.467 24.8677 150.467 27.5985C150.467 30.3292 148.217 32.5416 145.439 32.5416V32.5489Z" fill="#0AE9F0"/>
<path d="M189.937 17.7123C188.014 17.7123 186.217 18.2453 184.687 19.1653C184.293 18.311 183.417 17.7123 182.4 17.7123C181.011 17.7123 179.882 18.8221 179.882 20.1875V42.53C179.882 43.8953 181.011 45.0052 182.4 45.0052C183.788 45.0052 184.917 43.8953 184.917 42.53V36.1704C186.395 37.0101 188.111 37.4993 189.945 37.4993C195.5 37.4993 200 33.0746 200 27.6131C200 22.1516 195.5 17.7269 189.945 17.7269V17.7123H189.937ZM189.937 32.5489C187.167 32.5489 184.917 30.3438 184.91 27.6131V27.5912C184.91 24.8677 187.167 22.6554 189.937 22.6554C192.707 22.6554 194.965 24.8677 194.965 27.5985C194.965 30.3292 192.715 32.5416 189.937 32.5416V32.5489Z" fill="#0AE9F0"/>
<path d="M74.7483 32.5416H72.8471C71.904 32.5416 71.1316 31.7895 71.1316 30.8549V12.4845C71.1316 11.1191 70.0029 10.0093 68.6141 10.0093C67.2254 10.0093 66.0966 11.1191 66.0966 12.4845V30.8549C66.0966 34.513 69.1117 37.4847 72.8397 37.4847H74.7408C76.1295 37.4847 77.2583 36.3748 77.2583 35.0095C77.2583 33.6441 76.1295 32.5343 74.7408 32.5343L74.7483 32.5416Z" fill="#FB15EE"/>
<path d="M108.152 32.5416H106.251C105.307 32.5416 104.535 31.7895 104.535 30.8549V12.4845C104.535 11.1191 103.406 10.0093 102.018 10.0093C100.629 10.0093 99.5001 11.1191 99.5001 12.4845V30.8549C99.5001 34.513 102.515 37.4847 106.243 37.4847H108.144C109.533 37.4847 110.662 36.3748 110.662 35.0095C110.662 33.6441 109.533 32.5343 108.144 32.5343L108.152 32.5416Z" fill="#FB15EE"/>
<path d="M121.437 32.5416H119.536C118.593 32.5416 117.821 31.7895 117.821 30.8549V12.4845C117.821 11.1191 116.692 10.0093 115.303 10.0093C113.914 10.0093 112.786 11.1191 112.786 12.4845V30.8549C112.786 34.513 115.801 37.4847 119.529 37.4847H121.43C122.819 37.4847 123.947 36.3748 123.947 35.0095C123.947 33.6441 122.819 32.5343 121.43 32.5343L121.437 32.5416Z" fill="#FB15EE"/>
<path d="M19.1625 0.772807C5.5798 4.16798 -2.76735 18.1357 0.841826 31.4535C3.7455 42.1794 13.318 49.4005 23.997 49.9919C27.4502 50.1818 30.0865 46.991 29.188 43.7054L28.1186 39.7845C28.5345 39.7115 28.9503 39.6239 29.3588 39.5143C29.7672 39.4048 30.1757 39.2807 30.5767 39.142L31.6461 43.0628C32.5446 46.3558 36.4509 47.8161 39.3546 45.9469C48.2958 40.1934 52.9001 29.2485 49.9816 18.5519C46.3798 5.30701 32.6263 -2.58586 19.1625 0.772807Z" fill="url(#paint0_radial_1285_1490)"/>
<path d="M24.101 20.1801C13.1249 23.0715 4.81489 27.5765 5.54267 30.2488C6.27044 32.9211 15.7538 32.7386 26.7373 29.8472C37.7133 26.9558 46.0234 22.4508 45.2956 19.7785C44.5678 17.1062 35.0844 17.2887 24.101 20.1801ZM37.951 23.1664C34.7428 24.7435 30.5247 26.2549 26.0764 27.4304C21.6206 28.606 17.2019 29.3653 13.6225 29.5771C11.2164 29.7231 9.65683 29.5771 8.73597 29.4091C9.44889 28.8031 10.7262 27.9196 12.8873 26.8609C16.0954 25.2838 20.3136 23.7724 24.7619 22.5969C29.2102 21.4213 33.6363 20.662 37.2158 20.4502C39.6219 20.3042 41.1814 20.4502 42.1023 20.6182C41.3894 21.2242 40.112 22.1077 37.951 23.1664Z" fill="white"/>
<path d="M5.10451 23.4876C6.08886 23.4876 6.88682 22.7031 6.88682 21.7353C6.88682 20.7675 6.08886 19.9829 5.10451 19.9829C4.12017 19.9829 3.32221 20.7675 3.32221 21.7353C3.32221 22.7031 4.12017 23.4876 5.10451 23.4876Z" fill="white"/>
<path d="M7.31755 16.4052C7.87944 16.4052 8.33495 15.9574 8.33495 15.4049C8.33495 14.8525 7.87944 14.4046 7.31755 14.4046C6.75565 14.4046 6.30015 14.8525 6.30015 15.4049C6.30015 15.9574 6.75565 16.4052 7.31755 16.4052Z" fill="white"/>
<path d="M27.3908 32.264C23.2989 33.3446 19.2961 34.0821 15.7835 34.4252C14.8998 34.5128 14.5582 35.5862 15.2117 36.1703C18.9248 39.4486 24.1901 40.8724 29.3662 39.507C34.5423 38.1417 38.3817 34.3157 39.9264 29.6574C40.2011 28.825 39.3546 28.0657 38.5451 28.4234C35.3295 29.8545 31.4827 31.1834 27.3908 32.2567V32.264Z" fill="#0AE9F0"/>
<path d="M21.4646 10.5203C13.3254 12.6669 8.4909 20.8956 10.6742 28.898C10.7411 29.1463 10.8153 29.3872 10.8896 29.6209C11.6471 29.6428 12.5457 29.6355 13.615 29.5771C17.1945 29.3653 21.6131 28.606 26.0689 27.4304C30.5247 26.2549 34.7428 24.7435 37.9436 23.1664C38.9015 22.6918 39.6887 22.261 40.3274 21.8667C40.2754 21.6185 40.216 21.3775 40.1492 21.1293C37.9658 13.1269 29.5964 8.37362 21.4572 10.5203H21.4646Z" fill="#0AE9F0"/>
<defs>
<radialGradient id="paint0_radial_1285_1490" cx="0" cy="0" r="1" gradientUnits="userSpaceOnUse" gradientTransform="translate(25.2881 24.5349) rotate(-14.759) scale(25.1544 24.7869)">
<stop stop-color="#A730D2"/>
<stop offset="0.21" stop-color="#AB2ED3"/>
<stop offset="0.43" stop-color="#B72AD7"/>
<stop offset="0.66" stop-color="#CC24DE"/>
<stop offset="0.88" stop-color="#E91AE8"/>
<stop offset="1" stop-color="#FB15EE"/>
</radialGradient>
</defs>
</svg>
