<svg xmlns="http://www.w3.org/2000/svg" xmlns:xlink="http://www.w3.org/1999/xlink" fill="none" version="1.1" width="36" height="36" viewBox="0 0 36 36"><defs><clipPath id="master_svg0_0_7209"><rect x="6" y="6" width="24" height="24" rx="0"/></clipPath></defs><g><rect x="0" y="0" width="36" height="36" rx="8" fill="#320A8C" fill-opacity="0.4000000059604645"/><rect x="0.5" y="0.5" width="35" height="35" rx="7.5" fill-opacity="0" stroke-opacity="0.4000000059604645" stroke="#FFFFFF" fill="none" stroke-width="1"/><g clip-path="url(#master_svg0_0_7209)"><g><path d="M26.2101,9.154254C26.2101,9.154254,28.1519,8.397163,27.9904,10.23753C27.9359,10.99462,27.4515,13.64553,27.0741,16.51353C27.0741,16.51353,25.7781,25.0084,25.7781,25.0084C25.7781,25.0084,25.6701,26.2521,24.6981,26.4703C23.7272,26.6863,22.2708,25.7121,22.0013,25.495C21.7853,25.3324,17.9541,22.898600000000002,16.60462,21.7073C16.227159999999998,21.3833,15.79516,20.734299999999998,16.65916,19.976100000000002C16.65916,19.976100000000002,22.3243,14.565159999999999,22.3243,14.565159999999999C22.9723,13.916070000000001,23.6203,12.40189,20.921300000000002,14.24116C20.921300000000002,14.24116,13.3668,19.381500000000003,13.3668,19.381500000000003C13.3668,19.381500000000003,12.50389,19.9226,10.88498,19.4361C10.88498,19.4361,7.376618,18.352800000000002,7.376618,18.352800000000002C7.376618,18.352800000000002,6.081709,17.541159999999998,8.29407,16.72953C13.6908,14.18771,20.3279,11.590250000000001,26.2101,9.155345C26.2101,9.155345,26.2101,9.154254,26.2101,9.154254Z" fill="#FFFFFF" fill-opacity="1"/></g></g></g></svg>