<svg width="40" height="40" viewBox="0 0 40 40" fill="none" xmlns="http://www.w3.org/2000/svg">
<g filter="url(#filter0_bi_1285_1876)">
<rect width="40" height="40" rx="10" fill="#320A8C" fill-opacity="0.4"/>
<rect x="0.5" y="0.5" width="39" height="39" rx="9.5" stroke="#0AEAF1"/>
<g clip-path="url(#clip0_1285_1876)">
<g clip-path="url(#clip1_1285_1876)">
<path d="M28.7098 11.6545C28.7098 11.6545 30.6516 10.8974 30.4902 12.7378C30.4356 13.4949 29.9513 16.1458 29.5738 19.0138L28.2778 27.5087C28.2778 27.5087 28.1698 28.7523 27.1978 28.9705C26.2269 29.1865 24.7706 28.2123 24.5011 27.9952C24.2851 27.8327 20.4538 25.3989 19.1044 24.2076C18.7269 23.8836 18.2949 23.2345 19.1589 22.4763L24.824 17.0654C25.472 16.4163 26.12 14.9021 23.4211 16.7414L15.8666 21.8818C15.8666 21.8818 15.0036 22.4229 13.3847 21.9363L9.87637 20.853C9.87637 20.853 8.58146 20.0414 10.7938 19.2298C16.1906 16.688 22.8276 14.0905 28.7098 11.6556V11.6545Z" fill="#0AEAF1"/>
</g>
</g>
</g>
<defs>
<filter id="filter0_bi_1285_1876" x="-30" y="-30" width="100" height="100" filterUnits="userSpaceOnUse" color-interpolation-filters="sRGB">
<feFlood flood-opacity="0" result="BackgroundImageFix"/>
<feGaussianBlur in="BackgroundImageFix" stdDeviation="15"/>
<feComposite in2="SourceAlpha" operator="in" result="effect1_backgroundBlur_1285_1876"/>
<feBlend mode="normal" in="SourceGraphic" in2="effect1_backgroundBlur_1285_1876" result="shape"/>
<feColorMatrix in="SourceAlpha" type="matrix" values="0 0 0 0 0 0 0 0 0 0 0 0 0 0 0 0 0 0 127 0" result="hardAlpha"/>
<feOffset/>
<feGaussianBlur stdDeviation="3"/>
<feComposite in2="hardAlpha" operator="arithmetic" k2="-1" k3="1"/>
<feColorMatrix type="matrix" values="0 0 0 0 0.0392157 0 0 0 0 0.917647 0 0 0 0 0.945098 0 0 0 1 0"/>
<feBlend mode="normal" in2="shape" result="effect2_innerShadow_1285_1876"/>
</filter>
<clipPath id="clip0_1285_1876">
<rect width="24" height="24" fill="white" transform="translate(8 8)"/>
</clipPath>
<clipPath id="clip1_1285_1876">
<rect width="24" height="24" fill="white" transform="translate(8 8)"/>
</clipPath>
</defs>
</svg>
