<svg xmlns="http://www.w3.org/2000/svg" xmlns:xlink="http://www.w3.org/1999/xlink" fill="none" version="1.1" width="36" height="36" viewBox="0 0 36 36"><defs><filter id="master_svg0_0_7534" filterUnits="objectBoundingBox" color-interpolation-filters="sRGB" x="0" y="0" width="1" height="1"><feFlood flood-opacity="0" result="BackgroundImageFix"/><feBlend mode="normal" in="SourceGraphic" in2="BackgroundImageFix" result="shape"/><feColorMatrix in="SourceAlpha" type="matrix" result="hardAlpha" values="0 0 0 0 0 0 0 0 0 0 0 0 0 0 0 0 0 0 127 0"/><feOffset dy="0" dx="0"/><feGaussianBlur stdDeviation="3"/><feComposite in2="hardAlpha" operator="arithmetic" k2="-1" k3="1"/><feColorMatrix type="matrix" values="0 0 0 0 0.03921568766236305 0 0 0 0 0.9176470637321472 0 0 0 0 0.9450980424880981 0 0 0 1 0"/><feBlend mode="normal" in2="shape" result="effect1_innerShadow"/><feGaussianBlur in="BackgroundImageFix" stdDeviation="15"/><feComposite in2="SourceAlpha" operator="in" result="effect2_foregroundBlur"/><feBlend mode="normal" in="SourceGraphic" in2="effect2_foregroundBlur" result="shape"/></filter></defs><g filter="url(#master_svg0_0_7534)"><rect x="0" y="0" width="36" height="36" rx="8" fill="#320A8C" fill-opacity="0.4000000059604645"/><rect x="0.5" y="0.5" width="35" height="35" rx="7.5" fill-opacity="0" stroke-opacity="1" stroke="#0AEAF1" fill="none" stroke-width="1"/><g><g><path d="M14.72755,10C14.72755,10,9,10,9,10C9,10,15.75844,18.81116,15.75844,18.81116C15.75844,18.81116,9.368174,25.9988,9.368174,25.9988C9.368174,25.9988,11.53671,25.9988,11.53671,25.9988C11.53671,25.9988,16.763550000000002,20.1203,16.763550000000002,20.1203C16.763550000000002,20.1203,21.272399999999998,26,21.272399999999998,26C21.272399999999998,26,27,26,27,26C27,26,19.9556,16.81806,19.9556,16.81806C19.9556,16.81806,26.0182,10,26.0182,10C26.0182,10,23.8497,10,23.8497,10C23.8497,10,18.952959999999997,15.507719999999999,18.952959999999997,15.507719999999999C18.952959999999997,15.507719999999999,14.72755,10,14.72755,10ZM22.091,24.3993C22.091,24.3993,12.273060000000001,11.59952,12.273060000000001,11.59952C12.273060000000001,11.59952,13.90898,11.59952,13.90898,11.59952C13.90898,11.59952,23.7269,24.3993,23.7269,24.3993C23.7269,24.3993,22.091,24.3993,22.091,24.3993Z" fill="#0AEAF1" fill-opacity="1"/></g></g></g></svg>