<svg width="40" height="40" viewBox="0 0 40 40" fill="none" xmlns="http://www.w3.org/2000/svg">
<rect width="40" height="40" rx="10" fill="#320A8C" fill-opacity="0.4"/>
<rect x="0.5" y="0.5" width="39" height="39" rx="9.5" stroke="white" stroke-opacity="0.4"/>
<path d="M20.2444 12C20.7785 12.0029 22.1148 12.0159 23.5347 12.0727L24.0381 12.0947C25.4677 12.1624 26.8961 12.278 27.6045 12.4755C28.5494 12.741 29.2922 13.5156 29.5432 14.4974C29.9429 16.0566 29.9929 19.0997 29.9991 19.8362L30 19.9888V19.9995V20.0103L29.9991 20.1629C29.9929 20.8993 29.9429 23.9424 29.5432 25.5016C29.2887 26.4871 28.5459 27.2617 27.6045 27.5235C26.8961 27.721 25.4677 27.8366 24.0381 27.9043L23.5347 27.9262C22.1148 27.9831 20.7785 27.996 20.2444 27.999L20.01 27.9998H19.9995H19.9891L19.7549 27.999C18.6245 27.9928 13.8979 27.9417 12.3946 27.5235C11.4497 27.258 10.707 26.4835 10.4559 25.5016C10.0562 23.9424 10.0062 20.8993 10 20.1629V19.8362C10.0062 19.0997 10.0562 16.0566 10.4559 14.4974C10.7104 13.5119 11.4531 12.7374 12.3946 12.4755C13.8979 12.0572 18.6245 12.0062 19.7549 12H20.2444ZM17.9995 16.4993V23.4996L23.9997 19.9995L17.9995 16.4993Z" fill="white"/>
</svg>
