<svg width="41" height="40" viewBox="0 0 41 40" fill="none" xmlns="http://www.w3.org/2000/svg">
<rect x="0.227051" width="40" height="40" rx="10" fill="#320A8C" fill-opacity="0.4"/>
<rect x="0.727051" y="0.5" width="39" height="39" rx="9.5" stroke="white" stroke-opacity="0.4"/>
<g clip-path="url(#clip0_120_328)">
<g clip-path="url(#clip1_120_328)">
<path d="M27.5307 13.3367C26.1488 12.7023 24.6893 12.2526 23.19 11.9993C22.9991 12.3287 22.7864 12.7738 22.638 13.124C21.0436 12.8905 19.4237 12.8905 17.8293 13.124C17.6624 12.7409 17.4782 12.3656 17.2773 11.9993C15.75 12.2534 14.2958 12.7105 12.9354 13.3367C10.1874 17.3905 9.44454 21.3484 9.81545 25.2538C11.4251 26.4356 13.2232 27.3364 15.1336 27.9178C15.5591 27.3451 15.9409 26.7287 16.2693 26.0818C15.647 25.8493 15.0468 25.5616 14.4758 25.2222C14.6242 25.1164 14.7736 24.9996 14.9122 24.8829C18.3704 26.4647 22.1176 26.4647 25.5354 24.8829C25.6838 24.9996 25.8224 25.1164 25.9707 25.2222C25.3969 25.5625 24.8034 25.8484 24.1773 26.0818C24.5056 26.7298 24.8885 27.3451 25.3118 27.9178C27.2229 27.3381 29.0213 26.4372 30.63 25.2538C31.0871 20.7331 29.9078 16.8069 27.5307 13.3367ZM16.7471 22.8451C15.7074 22.8451 14.8576 21.9004 14.8576 20.744C14.8576 19.5876 15.6867 18.6429 16.7471 18.6429C17.7976 18.6429 18.6573 19.5876 18.6365 20.744C18.6365 21.9004 17.7976 22.8451 16.7471 22.8451ZM23.7213 22.8451C22.6805 22.8451 21.8307 21.9004 21.8307 20.744C21.8307 19.5876 22.6598 18.6429 23.7202 18.6429C24.7707 18.6429 25.6314 19.5876 25.6096 20.744C25.6096 21.9004 24.7816 22.8451 23.7213 22.8451Z" fill="white"/>
</g>
</g>
<defs>
<clipPath id="clip0_120_328">
<rect width="24" height="24" fill="white" transform="translate(8.22705 8)"/>
</clipPath>
<clipPath id="clip1_120_328">
<rect width="24" height="24" fill="white" transform="translate(8.22705 8)"/>
</clipPath>
</defs>
</svg>
