<svg width="41" height="40" viewBox="0 0 41 40" fill="none" xmlns="http://www.w3.org/2000/svg">
<rect x="0.227051" width="40" height="40" rx="10" fill="#320A8C" fill-opacity="0.4"/>
<rect x="0.727051" y="0.5" width="39" height="39" rx="9.5" stroke="white" stroke-opacity="0.4"/>
<g clip-path="url(#clip0_120_338)">
<g clip-path="url(#clip1_120_338)">
<path d="M20.2271 10.0008C18.9138 10.0006 17.6133 10.259 16.3999 10.7615C15.1865 11.264 14.0841 12.0006 13.1555 12.9293C12.2269 13.858 11.4904 14.9606 10.988 16.174C10.4857 17.3874 10.2274 18.6879 10.2278 20.0012C10.2265 22.1004 10.8864 24.1468 12.1138 25.8498C13.3412 27.5528 15.0737 28.8261 17.0656 29.4888C17.5652 29.5761 17.7529 29.2761 17.7529 29.0132C17.7529 28.7754 17.7398 27.9878 17.7398 27.151C15.2274 27.6136 14.5772 26.5379 14.3776 25.9761C14.2652 25.6881 13.7776 24.8012 13.3521 24.5634C13.0031 24.3758 12.5023 23.9132 13.3412 23.9012C14.1278 23.8881 14.6907 24.6256 14.8772 24.9267C15.7772 26.4387 17.2151 26.0132 17.79 25.7503C17.8772 25.1012 18.1401 24.6638 18.4281 24.4128C16.2027 24.163 13.878 23.3001 13.878 19.4754C13.878 18.3888 14.2652 17.4888 14.9034 16.7885C14.8031 16.5376 14.4529 15.5132 15.0027 14.1376C15.0027 14.1376 15.8405 13.8758 17.7518 15.163C18.5663 14.9369 19.4079 14.8231 20.2532 14.8248C21.1031 14.8248 21.9529 14.9383 22.7525 15.163C24.6649 13.8638 25.5027 14.1376 25.5027 14.1376C26.0525 15.5132 25.7023 16.5376 25.6031 16.7885C26.2401 17.4888 26.6285 18.3758 26.6285 19.4754C26.6285 23.3132 24.2907 24.163 22.0652 24.4128C22.4274 24.7259 22.7405 25.3259 22.7405 26.263C22.7405 27.6005 22.7274 28.6761 22.7274 29.0132C22.7274 29.275 22.9151 29.5881 23.4147 29.4888C25.4003 28.8188 27.1257 27.5428 28.348 25.8406C29.5704 24.1384 30.2281 22.0957 30.2285 20.0001C30.2289 18.6868 29.9706 17.3863 29.4683 16.1729C28.9659 14.9595 28.2294 13.8569 27.3008 12.9282C26.3722 11.9995 25.2698 11.2629 24.0564 10.7604C22.843 10.2579 21.5425 9.99947 20.2292 9.99976L20.2271 10.0008Z" fill="white"/>
</g>
</g>
<defs>
<clipPath id="clip0_120_338">
<rect width="24" height="24" fill="white" transform="translate(8.22705 8)"/>
</clipPath>
<clipPath id="clip1_120_338">
<rect width="24" height="24" fill="white" transform="translate(8.22705 8)"/>
</clipPath>
</defs>
</svg>
