<svg width="41" height="40" viewBox="0 0 41 40" fill="none" xmlns="http://www.w3.org/2000/svg">
<rect x="0.227051" width="40" height="40" rx="10" fill="#320A8C" fill-opacity="0.4"/>
<rect x="0.727051" y="0.5" width="39" height="39" rx="9.5" stroke="white" stroke-opacity="0.4"/>
<path d="M12.5106 14.445C13.7718 14.445 14.7942 13.4209 14.7942 12.1576C14.7942 10.8942 13.7718 9.87012 12.5106 9.87012C11.2494 9.87012 10.2271 10.8942 10.2271 12.1576C10.2271 13.4209 11.2494 14.445 12.5106 14.445Z" fill="white"/>
<path d="M16.9501 16.1783V28.8691H20.8838V22.5932C20.8838 20.9372 21.1948 19.3335 23.2446 19.3335C25.2662 19.3335 25.2912 21.2268 25.2912 22.6978V28.8701H29.2271V21.9105C29.2271 18.4919 28.4922 15.8647 24.5033 15.8647C22.5881 15.8647 21.3044 16.9174 20.7794 17.9137H20.7262V16.1783H16.9501ZM10.5398 16.1783H14.4797V28.8691H10.5398V16.1783Z" fill="white"/>
</svg>
