<svg width="41" height="40" viewBox="0 0 41 40" fill="none" xmlns="http://www.w3.org/2000/svg">
<g filter="url(#filter0_bi_512_388)">
<rect x="0.613525" width="40" height="40" rx="10" fill="#320A8C" fill-opacity="0.4"/>
<rect x="1.11353" y="0.5" width="39" height="39" rx="9.5" stroke="#0AEAF1"/>
<path d="M12.8971 14.445C14.1583 14.445 15.1807 13.4209 15.1807 12.1576C15.1807 10.8942 14.1583 9.87012 12.8971 9.87012C11.6359 9.87012 10.6135 10.8942 10.6135 12.1576C10.6135 13.4209 11.6359 14.445 12.8971 14.445Z" fill="#0AEAF1"/>
<path d="M17.3366 16.1783V28.8691H21.2702V22.5932C21.2702 20.9372 21.5812 19.3335 23.6311 19.3335C25.6527 19.3335 25.6777 21.2268 25.6777 22.6978V28.8701H29.6135V21.9105C29.6135 18.4919 28.8787 15.8647 24.8897 15.8647C22.9746 15.8647 21.6908 16.9174 21.1659 17.9137H21.1126V16.1783H17.3366ZM10.9262 16.1783H14.8662V28.8691H10.9262V16.1783Z" fill="#0AEAF1"/>
</g>
<defs>
<filter id="filter0_bi_512_388" x="-29.3865" y="-30" width="100" height="100" filterUnits="userSpaceOnUse" color-interpolation-filters="sRGB">
<feFlood flood-opacity="0" result="BackgroundImageFix"/>
<feGaussianBlur in="BackgroundImageFix" stdDeviation="15"/>
<feComposite in2="SourceAlpha" operator="in" result="effect1_backgroundBlur_512_388"/>
<feBlend mode="normal" in="SourceGraphic" in2="effect1_backgroundBlur_512_388" result="shape"/>
<feColorMatrix in="SourceAlpha" type="matrix" values="0 0 0 0 0 0 0 0 0 0 0 0 0 0 0 0 0 0 127 0" result="hardAlpha"/>
<feOffset/>
<feGaussianBlur stdDeviation="3"/>
<feComposite in2="hardAlpha" operator="arithmetic" k2="-1" k3="1"/>
<feColorMatrix type="matrix" values="0 0 0 0 0.0392157 0 0 0 0 0.917647 0 0 0 0 0.945098 0 0 0 1 0"/>
<feBlend mode="normal" in2="shape" result="effect2_innerShadow_512_388"/>
</filter>
</defs>
</svg>
