<svg width="60" height="60" viewBox="0 0 60 60" fill="none" xmlns="http://www.w3.org/2000/svg">
<path d="M22.6081 0.927369C6.58311 5.00158 -3.26495 21.7628 0.993195 37.7442C4.41899 50.6152 15.7127 59.2806 28.3119 59.9903C32.3861 60.2181 35.4964 56.3892 34.4363 52.4465L33.1746 47.7414C33.6653 47.6538 34.1559 47.5486 34.6378 47.4172C35.1197 47.2858 35.6016 47.1368 36.0747 46.9704L37.3364 51.6754C38.3965 55.627 43.0051 57.3793 46.4309 55.1363C56.9799 48.2321 62.4121 35.0982 58.9688 22.2622C54.7194 6.36842 38.4929 -3.10304 22.6081 0.927369Z" fill="url(#paint0_radial_603_183)"/>
<path d="M28.4346 24.2161C15.4849 27.6857 5.68066 33.0917 6.5393 36.2985C7.39794 39.5053 18.5865 39.2863 31.545 35.8167C44.4946 32.347 54.2989 26.941 53.4402 23.7342C52.5816 20.5274 41.393 20.7464 28.4346 24.2161ZM44.775 27.7997C40.99 29.6922 36.0134 31.5059 30.7652 32.9165C25.5082 34.3272 20.295 35.2384 16.0719 35.4925C13.2332 35.6677 11.3932 35.4925 10.3068 35.2909C11.1479 34.5637 12.6549 33.5036 15.2045 32.2331C18.9896 30.3406 23.9662 28.5269 29.2144 27.1162C34.4626 25.7056 39.6845 24.7944 43.9076 24.5403C46.7464 24.365 48.5863 24.5403 49.6727 24.7418C48.8316 25.469 47.3246 26.5292 44.775 27.7997Z" fill="white"/>
<path d="M6.02236 28.1852C7.1837 28.1852 8.12515 27.2437 8.12515 26.0823C8.12515 24.921 7.1837 23.9795 6.02236 23.9795C4.86103 23.9795 3.91958 24.921 3.91958 26.0823C3.91958 27.2437 4.86103 28.1852 6.02236 28.1852Z" fill="white"/>
<path d="M8.63333 19.6863C9.29626 19.6863 9.83367 19.1489 9.83367 18.4859C9.83367 17.823 9.29626 17.2856 8.63333 17.2856C7.9704 17.2856 7.43298 17.823 7.43298 18.4859C7.43298 19.1489 7.9704 19.6863 8.63333 19.6863Z" fill="white"/>
<path d="M32.316 38.7168C27.4883 40.0135 22.7658 40.8985 18.6216 41.3103C17.5789 41.4154 17.1759 42.7034 17.9469 43.4043C22.3277 47.3384 28.5397 49.0469 34.6466 47.4084C40.7534 45.77 45.2832 41.1788 47.1056 35.5888C47.4298 34.59 46.4309 33.6788 45.4759 34.1081C41.6822 35.8254 37.1436 37.4201 32.316 38.708V38.7168Z" fill="#0AE9F0"/>
<path d="M25.3242 12.6243C15.7215 15.2003 10.0177 25.0747 12.5936 34.6776C12.6724 34.9755 12.76 35.2647 12.8477 35.545C13.7413 35.5713 14.8015 35.5626 16.0632 35.4925C20.2863 35.2384 25.4994 34.3272 30.7564 32.9165C36.0134 31.5059 40.99 29.6922 44.7662 27.7997C45.8965 27.2301 46.8252 26.7132 47.5787 26.2401C47.5174 25.9422 47.4473 25.653 47.3684 25.3551C44.7925 15.7522 34.9182 10.0483 25.3154 12.6243H25.3242Z" fill="#0AE9F0"/>
<defs>
<radialGradient id="paint0_radial_603_183" cx="0" cy="0" r="1" gradientUnits="userSpaceOnUse" gradientTransform="translate(29.8352 29.4419) rotate(-15.0002) scale(29.7107 29.7111)">
<stop stop-color="#A730D2"/>
<stop offset="0.21" stop-color="#AB2ED3"/>
<stop offset="0.43" stop-color="#B72AD7"/>
<stop offset="0.66" stop-color="#CC24DE"/>
<stop offset="0.88" stop-color="#E91AE8"/>
<stop offset="1" stop-color="#FB15EE"/>
</radialGradient>
</defs>
</svg>
