<svg width="200" height="50" viewBox="0 0 200 50" fill="none" xmlns="http://www.w3.org/2000/svg">
<path d="M126.086 12.4917C126.086 11.1263 127.215 10.0165 128.604 10.0165C129.992 10.0165 131.121 11.1263 131.121 12.4917C131.121 13.857 129.992 14.9668 128.604 14.9668C127.215 14.9668 126.086 13.857 126.086 12.4917Z" fill="#FB15EE"/>
<path d="M131.114 20.1874C131.114 18.822 129.985 17.7122 128.596 17.7122C127.208 17.7122 126.079 18.822 126.079 20.1874V35.0166C126.079 36.382 127.208 37.4918 128.596 37.4918C129.985 37.4918 131.114 36.382 131.114 35.0166V20.1874Z" fill="#FB15EE"/>
<path d="M87.3136 17.7122C81.7587 17.7122 77.2584 22.1369 77.2584 27.5984C77.2584 33.0599 81.7587 37.4845 87.3136 37.4845C92.8684 37.4845 97.3688 33.0599 97.3688 27.5984C97.3688 22.1369 92.8684 17.7122 87.3136 17.7122ZM87.3136 32.5488C84.5361 32.5488 82.286 30.3364 82.286 27.6057C82.286 24.8749 84.5361 22.6626 87.3136 22.6626C90.091 22.6626 92.3412 24.8749 92.3412 27.6057C92.3412 30.3364 90.091 32.5488 87.3136 32.5488Z" fill="#FB15EE"/>
<path d="M167.688 17.7122C162.133 17.7122 157.633 22.1369 157.633 27.5984C157.633 33.0599 162.133 37.4845 167.688 37.4845C173.243 37.4845 177.743 33.0599 177.743 27.5984C177.743 22.1369 173.243 17.7122 167.688 17.7122ZM167.688 32.5488C164.911 32.5488 162.661 30.3364 162.661 27.6057C162.661 24.8749 164.911 22.6626 167.688 22.6626C170.466 22.6626 172.716 24.8749 172.716 27.6057C172.716 30.3364 170.466 32.5488 167.688 32.5488Z" fill="#0AE9F0"/>
<path d="M145.439 17.7122C143.516 17.7122 141.719 18.2452 140.189 19.1652C139.795 18.3109 138.919 17.7122 137.901 17.7122C136.513 17.7122 135.384 18.822 135.384 20.1874V42.5298C135.384 43.8952 136.513 45.005 137.901 45.005C139.29 45.005 140.419 43.8952 140.419 42.5298V36.1703C141.897 37.0099 143.612 37.4991 145.447 37.4991C151.001 37.4991 155.502 33.0745 155.502 27.613C155.502 22.1515 151.001 17.7268 145.447 17.7268V17.7122H145.439ZM145.439 32.5488C142.669 32.5488 140.419 30.3437 140.412 27.613V27.5911C140.412 24.8676 142.669 22.6553 145.439 22.6553C148.209 22.6553 150.467 24.8676 150.467 27.5984C150.467 30.3291 148.217 32.5415 145.439 32.5415V32.5488Z" fill="#0AE9F0"/>
<path d="M189.937 17.7122C188.014 17.7122 186.217 18.2452 184.687 19.1652C184.293 18.3109 183.417 17.7122 182.4 17.7122C181.011 17.7122 179.882 18.822 179.882 20.1874V42.5298C179.882 43.8952 181.011 45.005 182.4 45.005C183.788 45.005 184.917 43.8952 184.917 42.5298V36.1703C186.395 37.0099 188.111 37.4991 189.945 37.4991C195.5 37.4991 200 33.0745 200 27.613C200 22.1515 195.5 17.7268 189.945 17.7268V17.7122H189.937ZM189.937 32.5488C187.167 32.5488 184.917 30.3437 184.91 27.613V27.5911C184.91 24.8676 187.167 22.6553 189.937 22.6553C192.707 22.6553 194.965 24.8676 194.965 27.5984C194.965 30.3291 192.715 32.5415 189.937 32.5415V32.5488Z" fill="#0AE9F0"/>
<path d="M74.7483 32.5415H72.8472C71.904 32.5415 71.1317 31.7894 71.1317 30.8548V12.4843C71.1317 11.119 70.0029 10.0092 68.6142 10.0092C67.2255 10.0092 66.0967 11.119 66.0967 12.4843V30.8548C66.0967 34.5128 69.1118 37.4845 72.8397 37.4845H74.7409C76.1296 37.4845 77.2584 36.3747 77.2584 35.0093C77.2584 33.644 76.1296 32.5342 74.7409 32.5342L74.7483 32.5415Z" fill="#FB15EE"/>
<path d="M108.152 32.5415H106.251C105.307 32.5415 104.535 31.7894 104.535 30.8548V12.4843C104.535 11.119 103.406 10.0092 102.018 10.0092C100.629 10.0092 99.5001 11.119 99.5001 12.4843V30.8548C99.5001 34.5128 102.515 37.4845 106.243 37.4845H108.144C109.533 37.4845 110.662 36.3747 110.662 35.0093C110.662 33.644 109.533 32.5342 108.144 32.5342L108.152 32.5415Z" fill="#FB15EE"/>
<path d="M121.437 32.5415H119.536C118.593 32.5415 117.821 31.7894 117.821 30.8548V12.4843C117.821 11.119 116.692 10.0092 115.303 10.0092C113.915 10.0092 112.786 11.119 112.786 12.4843V30.8548C112.786 34.5128 115.801 37.4845 119.529 37.4845H121.43C122.819 37.4845 123.947 36.3747 123.947 35.0093C123.947 33.644 122.819 32.5342 121.43 32.5342L121.437 32.5415Z" fill="#FB15EE"/>
<path d="M19.1625 0.772807C5.5798 4.16798 -2.76735 18.1357 0.841826 31.4535C3.7455 42.1794 13.318 49.4005 23.997 49.9919C27.4502 50.1818 30.0865 46.991 29.188 43.7054L28.1186 39.7845C28.5345 39.7115 28.9503 39.6239 29.3588 39.5143C29.7672 39.4048 30.1757 39.2807 30.5767 39.142L31.6461 43.0628C32.5446 46.3558 36.4509 47.8161 39.3546 45.9469C48.2958 40.1934 52.9001 29.2485 49.9816 18.5519C46.3798 5.30701 32.6263 -2.58586 19.1625 0.772807Z" fill="url(#paint0_radial_506_289)"/>
<path d="M24.101 20.1801C13.1249 23.0715 4.81489 27.5765 5.54267 30.2488C6.27044 32.9211 15.7538 32.7386 26.7373 29.8472C37.7133 26.9558 46.0234 22.4508 45.2956 19.7785C44.5678 17.1062 35.0844 17.2887 24.101 20.1801ZM37.951 23.1664C34.7428 24.7435 30.5247 26.2549 26.0764 27.4304C21.6206 28.606 17.2019 29.3653 13.6225 29.5771C11.2164 29.7231 9.65683 29.5771 8.73597 29.4091C9.44889 28.8031 10.7262 27.9196 12.8873 26.8609C16.0954 25.2838 20.3136 23.7724 24.7619 22.5969C29.2102 21.4213 33.6363 20.662 37.2158 20.4502C39.6219 20.3042 41.1814 20.4502 42.1023 20.6182C41.3894 21.2242 40.112 22.1077 37.951 23.1664Z" fill="white"/>
<path d="M5.10451 23.4876C6.08886 23.4876 6.88682 22.7031 6.88682 21.7353C6.88682 20.7675 6.08886 19.9829 5.10451 19.9829C4.12017 19.9829 3.32221 20.7675 3.32221 21.7353C3.32221 22.7031 4.12017 23.4876 5.10451 23.4876Z" fill="white"/>
<path d="M7.31755 16.4052C7.87944 16.4052 8.33495 15.9574 8.33495 15.4049C8.33495 14.8525 7.87944 14.4046 7.31755 14.4046C6.75565 14.4046 6.30015 14.8525 6.30015 15.4049C6.30015 15.9574 6.75565 16.4052 7.31755 16.4052Z" fill="white"/>
<path d="M27.3908 32.264C23.2989 33.3446 19.2961 34.0821 15.7835 34.4252C14.8998 34.5128 14.5582 35.5862 15.2117 36.1703C18.9248 39.4486 24.1901 40.8724 29.3662 39.507C34.5423 38.1417 38.3817 34.3157 39.9264 29.6574C40.2011 28.825 39.3546 28.0657 38.5451 28.4234C35.3295 29.8545 31.4827 31.1834 27.3908 32.2567V32.264Z" fill="#0AE9F0"/>
<path d="M21.4646 10.5203C13.3254 12.6669 8.4909 20.8956 10.6742 28.898C10.7411 29.1463 10.8153 29.3872 10.8896 29.6209C11.6471 29.6428 12.5457 29.6355 13.615 29.5771C17.1945 29.3653 21.6131 28.606 26.0689 27.4304C30.5247 26.2549 34.7428 24.7435 37.9436 23.1664C38.9015 22.6918 39.6887 22.261 40.3274 21.8667C40.2754 21.6185 40.216 21.3775 40.1492 21.1293C37.9658 13.1269 29.5964 8.37362 21.4572 10.5203H21.4646Z" fill="#0AE9F0"/>
<defs>
<radialGradient id="paint0_radial_506_289" cx="0" cy="0" r="1" gradientUnits="userSpaceOnUse" gradientTransform="translate(25.2881 24.5349) rotate(-14.759) scale(25.1544 24.7869)">
<stop stop-color="#A730D2"/>
<stop offset="0.21" stop-color="#AB2ED3"/>
<stop offset="0.43" stop-color="#B72AD7"/>
<stop offset="0.66" stop-color="#CC24DE"/>
<stop offset="0.88" stop-color="#E91AE8"/>
<stop offset="1" stop-color="#FB15EE"/>
</radialGradient>
</defs>
</svg>
